<?xml version="1.0" encoding="UTF-8"?>
<svg width="145px" height="43px" viewBox="0 0 145 43" version="1.1" xmlns="http://www.w3.org/2000/svg" xmlns:xlink="http://www.w3.org/1999/xlink">
    <!-- Generator: Sketch 42 (36781) - http://www.bohemiancoding.com/sketch -->
    <title>Appstore</title>
    <desc>Created with Sketch.</desc>
    <defs>
        <rect id="path-1" x="0" y="0" width="145" height="43" rx="4"></rect>
        <mask id="mask-2" maskContentUnits="userSpaceOnUse" maskUnits="objectBoundingBox" x="0" y="0" width="145" height="43" fill="white">
            <use xlink:href="#path-1"></use>
        </mask>
        <mask id="mask-3" maskContentUnits="userSpaceOnUse" maskUnits="objectBoundingBox" x="0" y="0" width="145" height="43" fill="white">
            <use xlink:href="#path-1"></use>
        </mask>
    </defs>
    <g id="Page-1" stroke="none" stroke-width="1" fill="none" fill-rule="evenodd">
        <g id="Desktop-HD-4" transform="translate(-140.000000, -4020.000000)">
            <g id="Footer" transform="translate(0.000000, 3959.000000)">
                <g id="Appstore" transform="translate(140.000000, 61.000000)">
                    <g id="backfround-copy">
                        <use stroke="#A6A6A6" mask="url(#mask-2)" stroke-width="2" fill="#000000" fill-rule="evenodd" xlink:href="#path-1"></use>
                        <use stroke="#8F8F8F" mask="url(#mask-3)" stroke-width="1" xlink:href="#path-1"></use>
                    </g>
                    <path d="M55.6563381,33.0232019 L58.0934063,33.0232019 L52.7584797,18.2611455 L50.2906921,18.2611455 L44.9557655,33.0232019 L47.3109154,33.0232019 L48.6728065,29.1050677 L54.3046868,29.1050677 L55.6563381,33.0232019 Z M51.4068284,20.9414357 L51.5809047,20.9414357 L53.7210192,27.181806 L49.2564741,27.181806 L51.4068284,20.9414357 Z M64.5553332,21.6984642 C63.0398454,21.6984642 61.7291533,22.4554928 61.0533276,23.7240271 L60.8894911,23.7240271 L60.8894911,21.8826063 L58.7698561,21.8826063 L58.7698561,36.6344326 L60.9714094,36.6344326 L60.9714094,31.3352328 L61.1454857,31.3352328 C61.7291533,32.5116961 62.9886465,33.2073439 64.5758128,33.2073439 C67.3917529,33.2073439 69.1837148,30.9874089 69.1837148,27.447789 C69.1837148,23.9081691 67.3917529,21.6984642 64.5553332,21.6984642 L64.5553332,21.6984642 Z M63.9307065,31.2329317 C62.0875456,31.2329317 60.9304502,29.7802553 60.9304502,27.4580191 C60.9304502,25.1255529 62.0875456,23.6728765 63.9409463,23.6728765 C65.8045867,23.6728765 66.9207229,25.0948625 66.9207229,27.447789 C66.9207229,29.8109457 65.8045867,31.2329317 63.9307065,31.2329317 L63.9307065,31.2329317 Z M75.9733148,21.6984642 C74.457827,21.6984642 73.1471348,22.4554928 72.4713092,23.7240271 L72.3074727,23.7240271 L72.3074727,21.8826063 L70.1878377,21.8826063 L70.1878377,36.6344326 L72.3893909,36.6344326 L72.3893909,31.3352328 L72.5634672,31.3352328 C73.1471348,32.5116961 74.4066281,33.2073439 75.9937943,33.2073439 C78.8097345,33.2073439 80.6016964,30.9874089 80.6016964,27.447789 C80.6016964,23.9081691 78.8097345,21.6984642 75.9733148,21.6984642 L75.9733148,21.6984642 Z M75.348688,31.2329317 C73.5055272,31.2329317 72.3484318,29.7802553 72.3484318,27.4580191 C72.3484318,25.1255529 73.5055272,23.6728765 75.3589278,23.6728765 C77.2225682,23.6728765 78.3387045,25.0948625 78.3387045,27.447789 C78.3387045,29.8109457 77.2225682,31.2329317 75.348688,31.2329317 L75.348688,31.2329317 Z M85.2620458,29.0539171 C85.4258823,31.6932869 87.6274355,33.3812559 90.9041659,33.3812559 C94.4061715,33.3812559 96.5974849,31.6114459 96.5974849,28.7879341 C96.5974849,26.5679991 95.3482314,25.3403853 92.3172559,24.6345073 L90.6891304,24.2355328 C88.7640514,23.7854078 87.9858279,23.181831 87.9858279,22.1281291 C87.9858279,20.7982141 89.1941222,19.9286543 91.0065637,19.9286543 C92.7268471,19.9286543 93.9146619,20.7777539 94.1296973,22.1383592 L96.3619699,22.1383592 C96.2288527,19.6524412 94.0375393,17.9030915 91.037283,17.9030915 C87.8117516,17.9030915 85.6613973,19.6524412 85.6613973,22.2815808 C85.6613973,24.4503652 86.8799314,25.7393598 89.5525146,26.3633968 L91.4571141,26.823752 C93.4129126,27.2841072 94.2730543,27.9592948 94.2730543,29.0846075 C94.2730543,30.3940622 92.921403,31.3454629 91.0782422,31.3454629 C89.1019642,31.3454629 87.7298333,30.4554429 87.5352775,29.0539171 L85.2620458,29.0539171 Z M98.4924688,19.1818559 L98.4924688,21.9337569 L96.6595478,21.9337569 L96.6595478,23.7854078 L98.4924688,23.7854078 L98.4924688,30.0769287 C98.4924688,32.2252529 99.4652482,33.0845825 101.912556,33.0845825 C102.342627,33.0845825 102.741979,33.033432 103.090131,32.9720513 L103.090131,31.1408606 C102.782938,31.171551 102.608861,31.1920112 102.270949,31.1920112 C101.175292,31.1920112 100.694022,30.6805055 100.694022,29.5142723 L100.694022,23.7854078 L103.192529,23.7854078 L103.192529,21.9337569 L100.694022,21.9337569 L100.694022,19.1818559 L98.4924688,19.1818559 Z M108.650957,31.2840823 C106.736118,31.2840823 105.660941,29.8825565 105.660941,27.447789 C105.660941,25.0334818 106.736118,23.6217259 108.650957,23.6217259 C110.555557,23.6217259 111.640974,25.0334818 111.640974,27.447789 C111.640974,29.8723263 110.555557,31.2840823 108.650957,31.2840823 L108.650957,31.2840823 Z M108.650957,33.2380343 C111.907208,33.2380343 113.903966,31.0590197 113.903966,27.447789 C113.903966,23.8570186 111.896968,21.6677739 108.650957,21.6677739 C105.394706,21.6677739 103.387709,23.8570186 103.387709,27.447789 C103.387709,31.0590197 105.384467,33.2380343 108.650957,33.2380343 L108.650957,33.2380343 Z M114.908088,33.0232019 L117.109642,33.0232019 L117.109642,26.4452377 C117.109642,24.8800301 118.287217,23.8263282 119.946061,23.8263282 C120.314693,23.8263282 120.990519,23.897939 121.164595,23.9593197 L121.164595,21.7905353 C120.92908,21.7291546 120.509249,21.6984642 120.191816,21.6984642 C118.737767,21.6984642 117.508993,22.4964132 117.19156,23.5910356 L117.027723,23.5910356 L117.027723,21.8826063 L114.908088,21.8826063 L114.908088,33.0232019 Z M126.121274,23.539885 C127.7494,23.539885 128.814337,24.6754278 128.865536,26.4247775 L123.233656,26.4247775 C123.356533,24.6856579 124.493149,23.539885 126.121274,23.539885 L126.121274,23.539885 Z M128.855296,30.015548 C128.445705,30.8851078 127.534364,31.3659232 126.203193,31.3659232 C124.44195,31.3659232 123.305334,30.1280792 123.233656,28.1741272 L123.233656,28.0513658 L131.108048,28.0513658 L131.108048,27.2841072 C131.108048,23.7854078 129.234168,21.6677739 126.131514,21.6677739 C122.987901,21.6677739 120.991143,23.9286294 120.991143,27.4887095 C120.991143,31.0487896 122.946942,33.2380343 126.141754,33.2380343 C128.69146,33.2380343 130.473182,32.0104204 130.974931,30.015548 L128.855296,30.015548 Z" id="App-Store" fill="#FFFFFF"></path>
                    <path d="M47.0189354,6.73843079 L47.0189354,13.7679814 L49.5593766,13.7679814 C51.656094,13.7679814 52.8702396,12.4770383 52.8702396,10.2312844 C52.8702396,8.01963095 51.6463418,6.73843079 49.5593766,6.73843079 L47.0189354,6.73843079 Z M48.1111788,7.73221342 L49.4374744,7.73221342 C50.8954244,7.73221342 51.7584918,8.65779528 51.7584918,10.2458989 C51.7584918,11.8583599 50.9100527,12.7741988 49.4374744,12.7741988 L48.1111788,12.7741988 L48.1111788,7.73221342 Z M56.7135713,12.9398292 C55.801743,12.9398292 55.2897539,12.272436 55.2897539,11.1130229 C55.2897539,9.96335285 55.801743,9.29108813 56.7135713,9.29108813 C57.6205234,9.29108813 58.1373886,9.96335285 58.1373886,11.1130229 C58.1373886,12.2675645 57.6205234,12.9398292 56.7135713,12.9398292 L56.7135713,12.9398292 Z M56.7135713,13.8702826 C58.2641669,13.8702826 59.2150038,12.8326566 59.2150038,11.1130229 C59.2150038,9.40313225 58.2592908,8.36063479 56.7135713,8.36063479 C55.1629756,8.36063479 54.2072626,9.40313225 54.2072626,11.1130229 C54.2072626,12.8326566 55.1580996,13.8702826 56.7135713,13.8702826 L56.7135713,13.8702826 Z M67.4321854,8.46293594 L66.3838267,8.46293594 L65.4378659,12.5111387 L65.3549724,12.5111387 L64.2627289,8.46293594 L63.258255,8.46293594 L62.1660116,12.5111387 L62.0879942,12.5111387 L61.1371573,8.46293594 L60.0741703,8.46293594 L61.5369964,13.7679814 L62.6146116,13.7679814 L63.706855,9.8610517 L63.7897485,9.8610517 L64.8868681,13.7679814 L65.9742354,13.7679814 L67.4321854,8.46293594 Z M68.7643323,13.7679814 L69.812691,13.7679814 L69.812691,10.6648465 C69.812691,9.83669428 70.3295562,9.32031703 71.1731192,9.32031703 C71.9532931,9.32031703 72.3336279,9.74413609 72.3336279,10.5966457 L72.3336279,13.7679814 L73.3819866,13.7679814 L73.3819866,10.3335856 C73.3819866,9.07187137 72.7139627,8.36063479 71.5290736,8.36063479 C70.7293953,8.36063479 70.1101323,8.71625308 69.8516997,9.30570258 L69.7736823,9.30570258 L69.7736823,8.46293594 L68.7643323,8.46293594 L68.7643323,13.7679814 Z M75.1529813,13.7679814 L76.20134,13.7679814 L76.20134,6.39255547 L75.1529813,6.39255547 L75.1529813,13.7679814 Z M80.2640956,12.9398292 C79.3522673,12.9398292 78.8402782,12.272436 78.8402782,11.1130229 C78.8402782,9.96335285 79.3522673,9.29108813 80.2640956,9.29108813 C81.1710477,9.29108813 81.687913,9.96335285 81.687913,11.1130229 C81.687913,12.2675645 81.1710477,12.9398292 80.2640956,12.9398292 L80.2640956,12.9398292 Z M80.2640956,13.8702826 C81.8146912,13.8702826 82.7655282,12.8326566 82.7655282,11.1130229 C82.7655282,9.40313225 81.8098151,8.36063479 80.2640956,8.36063479 C78.7135,8.36063479 77.7577869,9.40313225 77.7577869,11.1130229 C77.7577869,12.8326566 78.7086239,13.8702826 80.2640956,13.8702826 L80.2640956,13.8702826 Z M86.0091011,12.9739296 C85.438599,12.9739296 85.0241316,12.6962551 85.0241316,12.2188497 C85.0241316,11.7511873 85.3557055,11.5027416 86.0871185,11.4540268 L87.3841576,11.3712116 L87.3841576,11.8145166 C87.3841576,12.4721668 86.7990272,12.9739296 86.0091011,12.9739296 L86.0091011,12.9739296 Z M85.7409164,13.8556681 C86.4381968,13.8556681 87.0184511,13.5536362 87.3353968,13.0226445 L87.4182902,13.0226445 L87.4182902,13.7679814 L88.4276402,13.7679814 L88.4276402,10.1435977 C88.4276402,9.02315654 87.6767228,8.36063479 86.3455511,8.36063479 C85.1411577,8.36063479 84.2829664,8.9452128 84.1756925,9.85618021 L85.1899185,9.85618021 C85.3069446,9.48107599 85.7116598,9.26673071 86.2967903,9.26673071 C87.013575,9.26673071 87.3841576,9.58337714 87.3841576,10.1435977 L87.3841576,10.6015172 L85.945712,10.6843324 C84.6828055,10.7622761 83.9708968,11.3127538 83.9708968,12.2675645 C83.9708968,13.2369897 84.7169381,13.8556681 85.7409164,13.8556681 L85.7409164,13.8556681 Z M92.110061,13.8556681 C92.841474,13.8556681 93.4607371,13.5097928 93.7776827,12.9300863 L93.8605762,12.9300863 L93.8605762,13.7679814 L94.8650501,13.7679814 L94.8650501,6.39255547 L93.8166914,6.39255547 L93.8166914,9.30570258 L93.738674,9.30570258 C93.4509849,8.72112456 92.836598,8.37524924 92.110061,8.37524924 C90.7691371,8.37524924 89.9060698,9.43723263 89.9060698,11.1130229 C89.9060698,12.7936847 90.759385,13.8556681 92.110061,13.8556681 L92.110061,13.8556681 Z M92.4075023,9.31544555 C93.2851979,9.31544555 93.8361958,10.0120677 93.8361958,11.1178944 C93.8361958,12.2285927 93.290074,12.9154718 92.4075023,12.9154718 C91.5200545,12.9154718 90.988561,12.2383356 90.988561,11.1130229 C90.988561,9.99745323 91.5249306,9.31544555 92.4075023,9.31544555 L92.4075023,9.31544555 Z M101.90807,12.9398292 C100.996242,12.9398292 100.484253,12.272436 100.484253,11.1130229 C100.484253,9.96335285 100.996242,9.29108813 101.90807,9.29108813 C102.815022,9.29108813 103.331887,9.96335285 103.331887,11.1130229 C103.331887,12.2675645 102.815022,12.9398292 101.90807,12.9398292 L101.90807,12.9398292 Z M101.90807,13.8702826 C103.458666,13.8702826 104.409503,12.8326566 104.409503,11.1130229 C104.409503,9.40313225 103.453789,8.36063479 101.90807,8.36063479 C100.357474,8.36063479 99.4017613,9.40313225 99.4017613,11.1130229 C99.4017613,12.8326566 100.352598,13.8702826 101.90807,13.8702826 L101.90807,13.8702826 Z M105.917189,13.7679814 L106.965547,13.7679814 L106.965547,10.6648465 C106.965547,9.83669428 107.482412,9.32031703 108.325975,9.32031703 C109.106149,9.32031703 109.486484,9.74413609 109.486484,10.5966457 L109.486484,13.7679814 L110.534843,13.7679814 L110.534843,10.3335856 C110.534843,9.07187137 109.866819,8.36063479 108.68193,8.36063479 C107.882252,8.36063479 107.262989,8.71625308 107.004556,9.30570258 L106.926539,9.30570258 L106.926539,8.46293594 L105.917189,8.46293594 L105.917189,13.7679814 Z M115.607924,7.17686431 L115.607924,8.48729336 L114.735104,8.48729336 L114.735104,9.36903187 L115.607924,9.36903187 L115.607924,12.3649942 C115.607924,13.3880057 116.071152,13.7972103 117.236537,13.7972103 C117.441332,13.7972103 117.6315,13.7728529 117.797287,13.743624 L117.797287,12.8716285 C117.651004,12.8862429 117.568111,12.8959859 117.4072,12.8959859 C116.885458,12.8959859 116.656282,12.6524117 116.656282,12.0970626 L116.656282,9.36903187 L117.846047,9.36903187 L117.846047,8.48729336 L116.656282,8.48729336 L116.656282,7.17686431 L115.607924,7.17686431 Z M119.339105,13.7679814 L120.387464,13.7679814 L120.387464,10.669718 C120.387464,9.86592318 120.918957,9.32518852 121.777149,9.32518852 C122.567075,9.32518852 122.962038,9.75387906 122.962038,10.6015172 L122.962038,13.7679814 L124.010396,13.7679814 L124.010396,10.3433286 C124.010396,9.08161434 123.327744,8.36550627 122.133103,8.36550627 C121.333425,8.36550627 120.719038,8.72112456 120.460605,9.31544555 L120.377712,9.31544555 L120.377712,6.39255547 L119.339105,6.39255547 L119.339105,13.7679814 Z M127.917117,9.25211626 C128.692415,9.25211626 129.199528,9.79285093 129.223909,10.6258746 L126.542061,10.6258746 C126.600574,9.79772241 127.141819,9.25211626 127.917117,9.25211626 L127.917117,9.25211626 Z M129.219032,12.3357653 C129.023989,12.7498414 128.590017,12.9788011 127.956126,12.9788011 C127.117439,12.9788011 126.576193,12.3893516 126.542061,11.4588983 L126.542061,11.4004405 L130.291772,11.4004405 L130.291772,11.0350792 C130.291772,9.36903187 129.399448,8.36063479 127.921993,8.36063479 C126.425035,8.36063479 125.474198,9.43723263 125.474198,11.1325089 C125.474198,12.8277851 126.40553,13.8702826 127.926869,13.8702826 C129.141015,13.8702826 129.989454,13.2857046 130.228382,12.3357653 L129.219032,12.3357653 Z" id="Download-on-the" fill="#FFFFFF"></path>
                    <g id="logo_apple" transform="translate(12.982094, 6.684455)" fill="#FFFFFF">
                        <path d="M19.3074457,15.0204916 C19.2753089,11.4522527 22.231889,9.71629278 22.367085,9.63547322 C20.69265,7.19649387 18.0973312,6.86325157 17.1853126,6.83668076 C15.0055551,6.60750748 12.8911792,8.13975778 11.7807995,8.13975778 C10.6482564,8.13975778 8.93836018,6.8588231 7.09548435,6.89646509 C4.72401455,6.93299996 2.5054713,8.30471826 1.28870782,10.4348119 C-1.22239058,14.7780329 0.650405669,21.160564 3.05622854,24.6712329 C4.25969406,26.3916931 5.66595349,28.3103273 7.50661299,28.2427932 C9.30737862,28.1697234 9.98003384,27.0958197 12.1531424,27.0958197 C14.306304,27.0958197 14.9379572,28.2427932 16.8151861,28.1985085 C18.7478231,28.1697234 19.9645866,26.4725127 21.1259419,24.7365528 C22.5166871,22.7680983 23.0752014,20.8251075 23.0973647,20.7254669 C23.0530382,20.7110744 19.3451232,19.2972856 19.3074457,15.0204916" id="Fill-2"></path>
                        <path d="M15.7613226,4.52723413 C16.7298575,3.31715496 17.3925392,1.67087158 17.2085841,0.000231617628 C15.8067573,0.0622301847 14.0536427,0.968959229 13.0441058,2.15246759 C12.1509261,3.19537206 11.3530484,4.90476112 11.5591668,6.5122954 C13.133867,6.62964983 14.7506775,5.71849232 15.7613226,4.52723413" id="Fill-3"></path>
                    </g>
                </g>
            </g>
        </g>
    </g>
</svg>