<?xml version="1.0" encoding="UTF-8"?>
<svg width="36px" height="36px" viewBox="0 0 36 36" version="1.1" xmlns="http://www.w3.org/2000/svg" xmlns:xlink="http://www.w3.org/1999/xlink">
    <!-- Generator: Sketch 42 (36781) - http://www.bohemiancoding.com/sketch -->
    <title>facebook</title>
    <desc>Created with Sketch.</desc>
    <defs></defs>
    <g id="Page-1" stroke="none" stroke-width="1" fill="none" fill-rule="evenodd">
        <g id="Desktop-HD-4" transform="translate(-1103.000000, -4020.000000)" fill-rule="nonzero">
            <g id="Footer" transform="translate(0.000000, 3959.000000)">
                <g id="Social-Media-Icon" transform="translate(1103.000000, 61.000000)">
                    <g id="facebook">
                        <g id="Capa_1">
                            <path d="M3.00563918,0 C1.3456705,0 0,1.34474264 0,3.00563918 L0,32.973045 C0,34.6330137 1.34735321,35.9786842 2.99388158,35.9786842 L19.1608421,35.9786842 L19.1608421,22.0808684 L14.4768947,22.0808684 L14.4768947,16.4073947 L19.1608421,16.4073947 L19.1608421,11.6426842 C19.1608421,8.17744737 21.9699474,5.36834211 25.4351842,5.36834211 L30.3318947,5.36834211 L30.3318947,10.4700789 L26.8280526,10.4700789 C25.7269737,10.4700789 24.8343158,11.3627368 24.8343158,12.4638158 L24.8343158,16.4074737 L30.2438684,16.4074737 L29.4962368,22.0809474 L24.8343158,22.0809474 L24.8343158,35.9786842 L32.977538,35.9786842 C34.6350253,35.9786842 35.9786842,34.6339416 35.9786842,32.973045 L35.9786842,3.00563918 C35.9786842,1.3456705 34.6339416,0 32.973045,0 L3.00563918,0 Z" id="Shape" fill="#345995"></path>
                            <path d="M19.1608421,35.9786842 L19.1608421,22.0808684 L14.4768947,22.0808684 L14.4768947,16.4073947 L19.1608421,16.4073947 L19.1608421,11.6426842 C19.1608421,8.17744737 21.9699474,5.36834211 25.4351842,5.36834211 L30.3318947,5.36834211 L30.3318947,10.4700789 L26.8280526,10.4700789 C25.7269737,10.4700789 24.8343158,11.3627368 24.8343158,12.4638158 L24.8343158,16.4074737 L30.2438684,16.4074737 L29.4962368,22.0809474 L24.8343158,22.0809474 L24.8343158,35.9786842 L19.1608421,35.9786842 Z" id="Shape" fill="#FFFFFF"></path>
                        </g>
                    </g>
                </g>
            </g>
        </g>
    </g>
</svg>