<?xml version="1.0" encoding="UTF-8"?>
<svg width="238px" height="38px" viewBox="0 0 238 38" version="1.1" xmlns="http://www.w3.org/2000/svg" xmlns:xlink="http://www.w3.org/1999/xlink">
    <!-- Generator: Sketch 42 (36781) - http://www.bohemiancoding.com/sketch -->
    <title>Group 12</title>
    <desc>Created with Sketch.</desc>
    <defs></defs>
    <g id="Page-1" stroke="none" stroke-width="1" fill="none" fill-rule="evenodd">
        <g id="Desktop-HD-4" transform="translate(-140.000000, -4101.000000)">
            <g id="Footer" transform="translate(0.000000, 3959.000000)">
                <g id="Group-12" transform="translate(140.000000, 139.000000)">
                    <text id="©-2017-All-Rights-Re" font-family="Oxygen-Regular, Oxygen" font-size="12" font-weight="normal" fill="#949494">
                        <tspan x="0" y="38">© 2017 All Rights Reserved</tspan>
                    </text>
                    <g id="Group-9" fill="#9B9B9B">
                        <g id="nyc-sani-logo-white" transform="translate(0.000000, 3.000000)">
                            <polyline id="Fill-11" points="38.3727017 6.48295455 39.1868326 5.64772727 39.1868326 3.14204545 36.74444 0.636363636 28.5488559 0.636363636 26.1064633 3.14204545 26.1064633 11.4943182 28.5488559 14 36.74444 14 39.1868326 11.4943182 39.1868326 8.98863636 38.3727017 8.15340909 34.3020474 8.15340909 34.3020474 8.98863636 30.9912485 8.98863636 30.9912485 5.64772727 34.3020474 5.64772727 34.3020474 6.48295455 38.3727017 6.48295455"></polyline>
                            <polyline id="Fill-12" points="4.07065436 14 4.88478523 13.1647727 4.88478523 9.82386364 9.00971497 14 12.2662385 14 13.0803693 13.1647727 13.0803693 1.47159091 12.2662385 0.636363636 9.00971497 0.636363636 8.1955841 1.47159091 8.1955841 4.8125 4.07065436 0.636363636 0.814130871 0.636363636 0 1.47159091 0 13.1647727 0.814130871 14 4.07065436 14"></polyline>
                            <polyline id="Fill-13" points="26.1064633 1.47159091 25.2923324 0.636363636 22.0358089 0.636363636 21.221678 1.47159091 21.221678 3.14204545 19.5934163 4.8125 17.9651546 3.14204545 17.9651546 1.47159091 17.1510237 0.636363636 13.8945002 0.636363636 13.0803693 1.47159091 13.0803693 6.48295455 17.1510237 10.6590909 17.1510237 13.1647727 17.9651546 14 21.221678 14 22.0358089 13.1647727 22.0358089 10.6590909 26.1064633 6.48295455 26.1064633 1.47159091"></polyline>
                        </g>
                        <text id="Department-of-Sanita" font-family="Oxygen-Bold, Oxygen" font-size="16" font-weight="bold">
                            <tspan x="45" y="16">Department of Sanitation</tspan>
                        </text>
                    </g>
                </g>
            </g>
        </g>
    </g>
</svg>