<?xml version="1.0" encoding="UTF-8"?>
<svg width="36px" height="36px" viewBox="0 0 36 36" version="1.1" xmlns="http://www.w3.org/2000/svg" xmlns:xlink="http://www.w3.org/1999/xlink">
    <!-- Generator: Sketch 42 (36781) - http://www.bohemiancoding.com/sketch -->
    <title>instagram</title>
    <desc>Created with Sketch.</desc>
    <defs>
        <linearGradient x1="50%" y1="146.098382%" x2="50%" y2="-45.1597534%" id="linearGradient-1">
            <stop stop-color="#E09B3D" offset="0%"></stop>
            <stop stop-color="#C74C4D" offset="30%"></stop>
            <stop stop-color="#C21975" offset="60%"></stop>
            <stop stop-color="#7024C4" offset="100%"></stop>
        </linearGradient>
    </defs>
    <g id="Page-1" stroke="none" stroke-width="1" fill="none" fill-rule="evenodd">
        <g id="Desktop-HD-4" transform="translate(-1205.000000, -4020.000000)">
            <g id="Footer" transform="translate(0.000000, 3959.000000)">
                <g id="Social-Media-Icon" transform="translate(1103.000000, 61.000000)">
                    <g id="instagram" transform="translate(102.000000, 0.000000)">
                        <rect id="Rectangle-5" fill="#FFFFFF" x="4.5" y="3" width="28.5" height="28.5" rx="3"></rect>
                        <g id="Layer_1" fill-rule="nonzero" fill="url(#linearGradient-1)">
                            <path d="M17.9889474,14.4118421 C16.0168421,14.4118421 14.4110526,16.0168421 14.4110526,17.9889474 C14.4110526,19.9618421 16.0168421,21.5676316 17.9889474,21.5676316 C19.9618421,21.5676316 21.5668421,19.9618421 21.5668421,17.9889474 C21.5668421,16.0168421 19.9618421,14.4118421 17.9889474,14.4118421 Z M17.9889474,14.4118421 C16.0168421,14.4118421 14.4110526,16.0168421 14.4110526,17.9889474 C14.4110526,19.9618421 16.0168421,21.5676316 17.9889474,21.5676316 C19.9618421,21.5676316 21.5668421,19.9618421 21.5668421,17.9889474 C21.5668421,16.0168421 19.9618421,14.4118421 17.9889474,14.4118421 Z M23.9494737,8.57842105 L12.0292105,8.57842105 C10.1265789,8.57842105 8.57842105,10.1265789 8.57842105,12.0292105 L8.57842105,23.9494737 C8.57842105,25.8521053 10.1265789,27.4002632 12.0292105,27.4002632 L23.9494737,27.4002632 C25.8521053,27.4002632 27.4002632,25.8521053 27.4002632,23.9494737 L27.4002632,12.0292105 C27.4002632,10.1265789 25.8521053,8.57842105 23.9494737,8.57842105 Z M17.9889474,24.1855263 C14.5728947,24.1855263 11.7931579,21.4057895 11.7931579,17.9889474 C11.7931579,14.5728947 14.5728947,11.7931579 17.9889474,11.7931579 C21.4057895,11.7931579 24.1855263,14.5728947 24.1855263,17.9889474 C24.1855263,21.4057895 21.4057895,24.1855263 17.9889474,24.1855263 Z M24.3844737,13.0744737 C23.5760526,13.0744737 22.9184211,12.4168421 22.9184211,11.6084211 C22.9184211,10.8 23.5760526,10.1423684 24.3844737,10.1423684 C25.1928947,10.1423684 25.8505263,10.8 25.8505263,11.6084211 C25.8505263,12.4168421 25.1928947,13.0744737 24.3844737,13.0744737 Z M17.9889474,14.4118421 C16.0168421,14.4118421 14.4110526,16.0168421 14.4110526,17.9889474 C14.4110526,19.9618421 16.0168421,21.5676316 17.9889474,21.5676316 C19.9618421,21.5676316 21.5668421,19.9618421 21.5668421,17.9889474 C21.5668421,16.0168421 19.9618421,14.4118421 17.9889474,14.4118421 Z M23.9494737,8.57842105 L12.0292105,8.57842105 C10.1265789,8.57842105 8.57842105,10.1265789 8.57842105,12.0292105 L8.57842105,23.9494737 C8.57842105,25.8521053 10.1265789,27.4002632 12.0292105,27.4002632 L23.9494737,27.4002632 C25.8521053,27.4002632 27.4002632,25.8521053 27.4002632,23.9494737 L27.4002632,12.0292105 C27.4002632,10.1265789 25.8521053,8.57842105 23.9494737,8.57842105 Z M17.9889474,24.1855263 C14.5728947,24.1855263 11.7931579,21.4057895 11.7931579,17.9889474 C11.7931579,14.5728947 14.5728947,11.7931579 17.9889474,11.7931579 C21.4057895,11.7931579 24.1855263,14.5728947 24.1855263,17.9889474 C24.1855263,21.4057895 21.4057895,24.1855263 17.9889474,24.1855263 Z M24.3844737,13.0744737 C23.5760526,13.0744737 22.9184211,12.4168421 22.9184211,11.6084211 C22.9184211,10.8 23.5760526,10.1423684 24.3844737,10.1423684 C25.1928947,10.1423684 25.8505263,10.8 25.8505263,11.6084211 C25.8505263,12.4168421 25.1928947,13.0744737 24.3844737,13.0744737 Z M17.9889474,14.4118421 C16.0168421,14.4118421 14.4110526,16.0168421 14.4110526,17.9889474 C14.4110526,19.9618421 16.0168421,21.5676316 17.9889474,21.5676316 C19.9618421,21.5676316 21.5668421,19.9618421 21.5668421,17.9889474 C21.5668421,16.0168421 19.9618421,14.4118421 17.9889474,14.4118421 Z M3.00563918,0 C1.3456705,0 0,1.34474264 0,3.00563918 L0,32.973045 C0,34.6330137 1.34474264,35.9786842 3.00563918,35.9786842 L32.973045,35.9786842 C34.6330137,35.9786842 35.9786842,34.6339416 35.9786842,32.973045 L35.9786842,3.00563918 C35.9786842,1.3456705 34.6339416,0 32.973045,0 L3.00563918,0 Z M30.0181579,23.9494737 C30.0181579,27.2960526 27.2960526,30.0181579 23.9494737,30.0181579 L12.0292105,30.0181579 C8.68263158,30.0181579 5.96052632,27.2960526 5.96052632,23.9494737 L5.96052632,12.0292105 C5.96052632,8.68263158 8.68263158,5.96052632 12.0292105,5.96052632 L23.9494737,5.96052632 C27.2960526,5.96052632 30.0181579,8.68263158 30.0181579,12.0292105 L30.0181579,23.9494737 Z M23.9494737,8.57842105 L12.0292105,8.57842105 C10.1265789,8.57842105 8.57842105,10.1265789 8.57842105,12.0292105 L8.57842105,23.9494737 C8.57842105,25.8521053 10.1265789,27.4002632 12.0292105,27.4002632 L23.9494737,27.4002632 C25.8521053,27.4002632 27.4002632,25.8521053 27.4002632,23.9494737 L27.4002632,12.0292105 C27.4002632,10.1265789 25.8521053,8.57842105 23.9494737,8.57842105 Z M17.9889474,24.1855263 C14.5728947,24.1855263 11.7931579,21.4057895 11.7931579,17.9889474 C11.7931579,14.5728947 14.5728947,11.7931579 17.9889474,11.7931579 C21.4057895,11.7931579 24.1855263,14.5728947 24.1855263,17.9889474 C24.1855263,21.4057895 21.4057895,24.1855263 17.9889474,24.1855263 Z M24.3844737,13.0744737 C23.5760526,13.0744737 22.9184211,12.4168421 22.9184211,11.6084211 C22.9184211,10.8 23.5760526,10.1423684 24.3844737,10.1423684 C25.1928947,10.1423684 25.8505263,10.8 25.8505263,11.6084211 C25.8505263,12.4168421 25.1928947,13.0744737 24.3844737,13.0744737 Z M17.9889474,14.4118421 C16.0168421,14.4118421 14.4110526,16.0168421 14.4110526,17.9889474 C14.4110526,19.9618421 16.0168421,21.5676316 17.9889474,21.5676316 C19.9618421,21.5676316 21.5668421,19.9618421 21.5668421,17.9889474 C21.5668421,16.0168421 19.9618421,14.4118421 17.9889474,14.4118421 Z M17.9889474,14.4118421 C16.0168421,14.4118421 14.4110526,16.0168421 14.4110526,17.9889474 C14.4110526,19.9618421 16.0168421,21.5676316 17.9889474,21.5676316 C19.9618421,21.5676316 21.5668421,19.9618421 21.5668421,17.9889474 C21.5668421,16.0168421 19.9618421,14.4118421 17.9889474,14.4118421 Z M17.9889474,14.4118421 C16.0168421,14.4118421 14.4110526,16.0168421 14.4110526,17.9889474 C14.4110526,19.9618421 16.0168421,21.5676316 17.9889474,21.5676316 C19.9618421,21.5676316 21.5668421,19.9618421 21.5668421,17.9889474 C21.5668421,16.0168421 19.9618421,14.4118421 17.9889474,14.4118421 Z M23.9494737,8.57842105 L12.0292105,8.57842105 C10.1265789,8.57842105 8.57842105,10.1265789 8.57842105,12.0292105 L8.57842105,23.9494737 C8.57842105,25.8521053 10.1265789,27.4002632 12.0292105,27.4002632 L23.9494737,27.4002632 C25.8521053,27.4002632 27.4002632,25.8521053 27.4002632,23.9494737 L27.4002632,12.0292105 C27.4002632,10.1265789 25.8521053,8.57842105 23.9494737,8.57842105 Z M17.9889474,24.1855263 C14.5728947,24.1855263 11.7931579,21.4057895 11.7931579,17.9889474 C11.7931579,14.5728947 14.5728947,11.7931579 17.9889474,11.7931579 C21.4057895,11.7931579 24.1855263,14.5728947 24.1855263,17.9889474 C24.1855263,21.4057895 21.4057895,24.1855263 17.9889474,24.1855263 Z M24.3844737,13.0744737 C23.5760526,13.0744737 22.9184211,12.4168421 22.9184211,11.6084211 C22.9184211,10.8 23.5760526,10.1423684 24.3844737,10.1423684 C25.1928947,10.1423684 25.8505263,10.8 25.8505263,11.6084211 C25.8505263,12.4168421 25.1928947,13.0744737 24.3844737,13.0744737 Z M17.9889474,14.4118421 C16.0168421,14.4118421 14.4110526,16.0168421 14.4110526,17.9889474 C14.4110526,19.9618421 16.0168421,21.5676316 17.9889474,21.5676316 C19.9618421,21.5676316 21.5668421,19.9618421 21.5668421,17.9889474 C21.5668421,16.0168421 19.9618421,14.4118421 17.9889474,14.4118421 Z M17.9889474,14.4118421 C16.0168421,14.4118421 14.4110526,16.0168421 14.4110526,17.9889474 C14.4110526,19.9618421 16.0168421,21.5676316 17.9889474,21.5676316 C19.9618421,21.5676316 21.5668421,19.9618421 21.5668421,17.9889474 C21.5668421,16.0168421 19.9618421,14.4118421 17.9889474,14.4118421 Z M17.9889474,14.4118421 C16.0168421,14.4118421 14.4110526,16.0168421 14.4110526,17.9889474 C14.4110526,19.9618421 16.0168421,21.5676316 17.9889474,21.5676316 C19.9618421,21.5676316 21.5668421,19.9618421 21.5668421,17.9889474 C21.5668421,16.0168421 19.9618421,14.4118421 17.9889474,14.4118421 Z M23.9494737,8.57842105 L12.0292105,8.57842105 C10.1265789,8.57842105 8.57842105,10.1265789 8.57842105,12.0292105 L8.57842105,23.9494737 C8.57842105,25.8521053 10.1265789,27.4002632 12.0292105,27.4002632 L23.9494737,27.4002632 C25.8521053,27.4002632 27.4002632,25.8521053 27.4002632,23.9494737 L27.4002632,12.0292105 C27.4002632,10.1265789 25.8521053,8.57842105 23.9494737,8.57842105 Z M17.9889474,24.1855263 C14.5728947,24.1855263 11.7931579,21.4057895 11.7931579,17.9889474 C11.7931579,14.5728947 14.5728947,11.7931579 17.9889474,11.7931579 C21.4057895,11.7931579 24.1855263,14.5728947 24.1855263,17.9889474 C24.1855263,21.4057895 21.4057895,24.1855263 17.9889474,24.1855263 Z M24.3844737,13.0744737 C23.5760526,13.0744737 22.9184211,12.4168421 22.9184211,11.6084211 C22.9184211,10.8 23.5760526,10.1423684 24.3844737,10.1423684 C25.1928947,10.1423684 25.8505263,10.8 25.8505263,11.6084211 C25.8505263,12.4168421 25.1928947,13.0744737 24.3844737,13.0744737 Z M17.9889474,14.4118421 C16.0168421,14.4118421 14.4110526,16.0168421 14.4110526,17.9889474 C14.4110526,19.9618421 16.0168421,21.5676316 17.9889474,21.5676316 C19.9618421,21.5676316 21.5668421,19.9618421 21.5668421,17.9889474 C21.5668421,16.0168421 19.9618421,14.4118421 17.9889474,14.4118421 Z" id="Shape"></path>
                        </g>
                    </g>
                </g>
            </g>
        </g>
    </g>
</svg>