<?xml version="1.0" encoding="UTF-8"?>
<svg width="149px" height="44px" viewBox="0 0 149 44" version="1.1" xmlns="http://www.w3.org/2000/svg" xmlns:xlink="http://www.w3.org/1999/xlink">
    <!-- Generator: Sketch 42 (36781) - http://www.bohemiancoding.com/sketch -->
    <title>Playstore</title>
    <desc>Created with Sketch.</desc>
    <defs>
        <rect id="path-1" x="0" y="0" width="149" height="43.9196078" rx="5"></rect>
        <mask id="mask-2" maskContentUnits="userSpaceOnUse" maskUnits="objectBoundingBox" x="0" y="0" width="149" height="43.9196078" fill="white">
            <use xlink:href="#path-1"></use>
        </mask>
        <mask id="mask-3" maskContentUnits="userSpaceOnUse" maskUnits="objectBoundingBox" x="0" y="0" width="149" height="43.9196078" fill="white">
            <use xlink:href="#path-1"></use>
        </mask>
        <linearGradient x1="50%" y1="0%" x2="50%" y2="38.9125982%" id="linearGradient-4">
            <stop stop-color="#FBDA09" offset="0%"></stop>
            <stop stop-color="#FFBC00" offset="100%"></stop>
        </linearGradient>
        <path d="M11.1622142,3.56673056 C12.0222518,2.05767328 13.4193296,2.06234265 14.276731,3.56673056 L26.5217119,25.0516535 C27.3817744,26.5607107 26.6589774,27.7840434 24.9359208,27.7840434 L0.503425135,27.7840434 C-1.23244561,27.7840434 -1.93978752,26.5560414 -1.0824111,25.0516535 L11.1622142,3.56673056 Z" id="path-5"></path>
        <linearGradient x1="0%" y1="58.4755255%" x2="69.3064856%" y2="39.0830098%" id="linearGradient-7">
            <stop stop-color="#01E2FF" offset="0%"></stop>
            <stop stop-color="#01C4FF" offset="100%"></stop>
        </linearGradient>
        <linearGradient x1="20.2810876%" y1="20.1019903%" x2="83.820166%" y2="83.6214476%" id="linearGradient-8">
            <stop stop-color="#28D781" offset="0%"></stop>
            <stop stop-color="#02F076" offset="100%"></stop>
        </linearGradient>
        <linearGradient x1="74.4881466%" y1="17.4301299%" x2="10.1079427%" y2="91.1838038%" id="linearGradient-9">
            <stop stop-color="#F2414E" offset="0%"></stop>
            <stop stop-color="#E02554" offset="100%"></stop>
        </linearGradient>
    </defs>
    <g id="Page-1" stroke="none" stroke-width="1" fill="none" fill-rule="evenodd">
        <g id="Desktop-HD-4" transform="translate(-292.000000, -4020.000000)">
            <g id="Footer" transform="translate(0.000000, 3959.000000)">
                <g id="Playstore" transform="translate(292.000000, 61.000000)">
                    <g id="background">
                        <use stroke="#A6A6A6" mask="url(#mask-2)" stroke-width="2" fill="#000000" fill-rule="evenodd" xlink:href="#path-1"></use>
                        <use stroke="#8F8F8F" mask="url(#mask-3)" stroke-width="1" xlink:href="#path-1"></use>
                    </g>
                    <g id="get-it-on" transform="translate(45.691997, 7.400000)" fill="#FFFFFF">
                        <path d="M33.2669805,7.2 C31.2747442,7.2 29.6597176,5.5882251 29.6597176,3.6 C29.6597176,1.6117749 31.2747442,0 33.2669805,0 C35.2592168,0 36.8742434,1.6117749 36.8742434,3.6 C36.8742434,5.5882251 35.2592168,7.2 33.2669805,7.2 Z M33.2669805,6.1 C34.6504779,6.1 35.7720242,4.98071187 35.7720242,3.6 C35.7720242,2.21928813 34.6504779,1.1 33.2669805,1.1 C31.8834831,1.1 30.7619368,2.21928813 30.7619368,3.6 C30.7619368,4.98071187 31.8834831,6.1 33.2669805,6.1 Z" id="o"></path>
                        <path d="M8.81775387,4 L8.81775387,6.2 L11.7236046,6.2 L11.7236046,7 L7.71553463,7 L7.71553463,6.6 L7.71553463,0.75 L7.71553463,0.3 L11.7236046,0.3 L11.7236046,1.1 L8.81775387,1.1 L8.81775387,3.2 L11.4229993,3.2 L11.4229993,4 L8.81775387,4 Z" id="e"></path>
                        <path d="M15.6314728,1.1 L15.6314728,7 L14.5292535,7 L14.5292535,1.1 L12.8258238,1.1 L12.8258238,0.3 L17.3349025,0.3 L17.3349025,1.1 L15.6314728,1.1 Z" id="t"></path>
                        <path d="M25.4512441,1.1 L25.4512441,7 L24.3490249,7 L24.3490249,1.1 L22.6455952,1.1 L22.6455952,0.3 L27.1546738,0.3 L27.1546738,1.1 L25.4512441,1.1 Z" id="t"></path>
                        <rect id="i" x="20.5413584" y="0.3" width="1.10221923" height="6.7"></rect>
                        <path d="M38.4273705,0.3 L37.7760592,0.3 L37.7760592,7 L38.8782784,7 L38.8782784,1.77073171 L42.0847344,7 L42.635844,7 L43.1869536,7 L43.1869536,0.3 L42.0847344,0.3 L42.0847344,5.20243902 L39.0786819,0.3 L38.4273705,0.3 Z" id="n"></path>
                        <g id="g" transform="translate(0.000000, 0.100000)">
                            <polygon id="Rectangle-1" points="3.5855454 3.21701113 6.60337944 3.21701113 6.5734999 4.17019961 3.5855454 4.17019961"></polygon>
                            <path d="M6.009518,0.974252872 C5.42213082,0.35600612 4.56286965,0 3.54072608,0 C1.58523706,0 0,1.58033459 0,3.5297761 C0,5.47921761 1.58523895,7.05675695 3.54072608,7.0595522 C5.52888299,7.07741285 7.18713938,5.67974438 6.85554646,3.25244154 C6.85554646,3.24060753 6.85549637,3.22879734 6.85539636,3.21701113 L5.97386761,3.21701113 C5.9810449,3.3183481 5.98354757,3.42263788 5.98116126,3.5297761 C5.98326217,5.26342256 4.98152808,6.07657658 3.57060563,6.07657658 C2.15968317,6.07657658 1.01590453,4.93633516 1.01590453,3.5297761 C1.01590453,2.12321704 2.15968317,0.982975623 3.57060563,0.982975623 C4.2764675,0.982975623 4.88822699,1.22365484 5.31895307,1.66268218 L6.009518,0.974252872 Z" id="Oval-1"></path>
                        </g>
                    </g>
                    <g id="googleplay" transform="translate(45.190989, 19.200000)" fill="#FFFFFF">
                        <g id="big-P" transform="translate(62.525891, 0.500000)">
                            <path d="M0.501008742,3.51464178e-07 L6.18173581,0 C6.18173581,0 9.45197378,0.555273437 9.45197353,4.30297987 C9.45197327,8.05068629 6.18173581,8.60595973 6.18173581,8.60595973 L0.501008742,8.60596008 L0.501008742,3.51464178e-07 Z M1.60322798,2.08169128 L1.60322798,6.7 L5.45958305,6.7 C5.45958305,6.7 7.21452589,6.7 7.21452589,4.39084564 C7.21452589,2.08169128 5.45958305,2.08169128 5.45958305,2.08169128 L1.60322798,2.08169128 Z" id="Combined-Shape"></path>
                            <rect id="Rectangle-6" x="0" y="0" width="2.00403497" height="14"></rect>
                        </g>
                        <rect id="y" x="73.1472764" y="0.5" width="2.00403497" height="14"></rect>
                        <path d="M82.5790685,13.4990133 C82.0270866,13.953522 81.1446061,14.3812901 79.7508154,14.4681641 C76.5577166,14.6671877 76.5560529,11.7592772 76.5560529,11.5631836 C76.5560529,11.36709 76.3985581,8.9956543 78.9385843,8.61870117 C80.7371729,8.35178127 81.996892,8.79652114 82.5790685,9.07890503 L82.5790685,8.66756044 C82.4363028,8.12277765 81.9932656,7.12177734 80.6650585,7.12177734 C78.8402995,7.12177734 78.437331,8.10634766 78.437331,8.10634766 L76.768052,7.12177734 C76.768052,7.12177734 77.7021504,5.2 80.5049706,5.2 C83.9900056,5.2 84.5833114,7.59893799 84.5833114,8.40689697 C84.5833114,8.41082973 84.5832418,8.41473706 84.5831034,8.41861912 L84.5831034,14.4955078 L82.5790685,14.4955078 L82.5790685,13.4990133 Z M82.4359091,10.500293 C82.4359091,10.500293 78.5751084,9.46176765 78.4409026,11.6263184 C78.3066969,13.7908691 82.1447957,12.7515137 82.4877225,11.2170898 C82.4877224,10.7291504 82.4359091,10.500293 82.4359091,10.500293 Z" id="a"></path>
                        <path d="M88.3435385,13.968842 L86.4741089,18.4 L88.4781439,18.4 L93.8999979,5.5484375 L91.8959629,5.5484375 L89.345556,11.5937338 L86.7747142,5.5 L84.7706792,5.5 L88.3435385,13.968842 Z" id="y"></path>
                        <path d="M58.0393925,8.77256561 L51.7012347,11.3867149 C51.7012347,11.3867149 52.1105762,12.8325968 54.0161889,12.8422877 C55.5083547,12.849876 56.3506908,11.5223582 56.3506908,11.5223582 L57.9587665,12.609202 C57.9587665,12.609202 56.6611376,14.7036382 54.0035226,14.7036382 C50.7376803,14.7036382 49.2992603,11.8536746 49.2992603,10.0028142 C49.2992603,8.21955793 50.4409958,5.2 53.8008614,5.2 C57.1607269,5.2 58.0393925,8.77256561 58.0393925,8.77256561 Z M55.6278575,8.03201529 C55.6278575,8.03201529 54.8304292,6.8211908 53.6074563,7.04449359 C51.0204805,7.51684986 51.3460294,9.77615592 51.3460294,9.77615592 L55.6278575,8.03201529 Z" id="e"></path>
                        <rect id="i" x="46.2932078" y="0.5" width="2.12014858" height="13.9705882"></rect>
                        <path d="M42.9003661,5.50362628 L44.860237,5.52052336 L44.860237,14.3355363 C44.860237,16.5877479 43.5166318,18.9651733 40.3534597,18.9651733 C37.1902877,18.9651733 36.1686995,16.1682058 36.1686995,16.1682058 L37.9686579,15.412739 C37.9686579,15.412739 38.5176337,17.1365081 40.4469957,17.1365058 C42.6441166,17.1365032 42.9006097,15.1416343 42.9006097,14.458785 L42.9006097,13.5021519 C42.9006097,13.5021519 42.1403864,14.6895886 40.2521291,14.6895912 C38.2048728,14.6895941 35.7720242,12.9390838 35.7720242,9.95481092 C35.7720242,6.97053804 38.0628638,5.26356743 40.2758176,5.20147593 C42.0483731,5.15174121 42.9003661,6.37547098 42.9003661,6.37547098 L42.9003661,5.50362628 Z M40.4194708,12.8982756 C41.8486889,12.8982756 43.0072992,11.5917079 43.0072992,9.97997496 C43.0072992,8.36824201 41.8486889,7.06167431 40.4194708,7.06167431 C38.9902526,7.06167431 37.8316424,8.36824201 37.8316424,9.97997496 C37.8316424,11.5917079 38.9902526,12.8982756 40.4194708,12.8982756 Z" id="g"></path>
                        <path d="M30.1213767,14.7 C27.4867938,14.7 25.3510424,12.5733526 25.3510424,9.95 C25.3510424,7.32664744 27.4867938,5.2 30.1213767,5.2 C32.7559596,5.2 34.891711,7.32664744 34.891711,9.95 C34.891711,12.5733526 32.7559596,14.7 30.1213767,14.7 Z M30.090198,12.8372549 C31.5710747,12.8372549 32.7715624,11.5445869 32.7715624,9.95 C32.7715624,8.35541315 31.5710747,7.0627451 30.090198,7.0627451 C28.6093214,7.0627451 27.4088336,8.35541315 27.4088336,9.95 C27.4088336,11.5445869 28.6093214,12.8372549 30.090198,12.8372549 Z" id="o"></path>
                        <path d="M19.8005966,14.7 C17.1660137,14.7 15.0302623,12.5733526 15.0302623,9.95 C15.0302623,7.32664744 17.1660137,5.2 19.8005966,5.2 C22.4351795,5.2 24.5709309,7.32664744 24.5709309,9.95 C24.5709309,12.5733526 22.4351795,14.7 19.8005966,14.7 Z M19.7694179,12.8372549 C21.2502946,12.8372549 22.4507823,11.5445869 22.4507823,9.95 C22.4507823,8.35541315 21.2502946,7.0627451 19.7694179,7.0627451 C18.2885413,7.0627451 17.0880535,8.35541315 17.0880535,9.95 C17.0880535,11.5445869 18.2885413,12.8372549 19.7694179,12.8372549 Z" id="o"></path>
                        <g id="big-g">
                            <polygon id="Rectangle-1" points="7.48287735 6.70588235 13.7809658 6.70588235 13.7186085 8.69281046 7.48287735 8.69281046"></polygon>
                            <path d="M12.5416028,2.03083697 C11.3157513,0.742097264 9.52251058,0 7.38934139,0 C3.30832083,0 0,3.29421858 0,7.35784314 C0,11.4214677 3.30832476,14.7098596 7.38934139,14.7156863 C11.5385384,14.7529169 14.9992474,11.8394672 14.3072274,6.77973729 C14.3072274,6.75506922 14.3071229,6.7304508 14.3069141,6.70588235 L12.467202,6.70588235 C12.4821807,6.91711998 12.4874036,7.13451277 12.4824235,7.35784314 C12.486808,10.9716414 10.3962325,12.6666667 7.4516987,12.6666667 C4.50716488,12.6666667 2.12014858,10.2898254 2.12014858,7.35784314 C2.12014858,4.42586086 4.50716488,2.04901961 7.4516987,2.04901961 C8.92480175,2.04901961 10.2015172,2.55071713 11.1004238,3.46587272 L12.5416028,2.03083697 Z" id="Oval-1"></path>
                        </g>
                    </g>
                    <g id="logo_play" transform="translate(10.921991, 6.800000)">
                        <mask id="mask-6" fill="white">
                            <use xlink:href="#path-5"></use>
                        </mask>
                        <use id="yellow" fill="url(#linearGradient-4)" transform="translate(12.719111, 15.110366) rotate(-270.000000) translate(-12.719111, -15.110366) " xlink:href="#path-5"></use>
                        <polygon id="blue" fill="url(#linearGradient-7)" mask="url(#mask-6)" points="-1.89082083e-12 0.990138888 14.0068862 14.883674 -0.180919824 29.3263498"></polygon>
                        <polygon id="green" fill="url(#linearGradient-8)" mask="url(#mask-6)" points="-2.88033637 -1.87004557 14.0052239 14.8877379 19.0254977 10.1081228"></polygon>
                        <polygon id="red" fill="url(#linearGradient-9)" mask="url(#mask-6)" points="14.0075241 14.8845407 21.69306 22.6156037 -1.26674803 30.3466667"></polygon>
                    </g>
                </g>
            </g>
        </g>
    </g>
</svg>