<?xml version="1.0" encoding="UTF-8"?>
<svg width="36px" height="36px" viewBox="0 0 36 36" version="1.1" xmlns="http://www.w3.org/2000/svg" xmlns:xlink="http://www.w3.org/1999/xlink">
    <!-- Generator: Sketch 42 (36781) - http://www.bohemiancoding.com/sketch -->
    <title>twitter</title>
    <desc>Created with Sketch.</desc>
    <defs></defs>
    <g id="Page-1" stroke="none" stroke-width="1" fill="none" fill-rule="evenodd">
        <g id="Desktop-HD-4" transform="translate(-1154.000000, -4020.000000)">
            <g id="Footer" transform="translate(0.000000, 3959.000000)">
                <g id="Social-Media-Icon" transform="translate(1103.000000, 61.000000)">
                    <g id="twitter" transform="translate(51.000000, 0.000000)">
                        <g id="Capa_1">
                            <path d="M3.00564577,0 C1.34567345,0 0,1.34474559 0,3.00564577 L0,32.9731174 C0,34.6330897 1.34474559,35.9787632 3.00564577,35.9787632 L32.9731174,35.9787632 C34.6330897,35.9787632 35.9787632,34.6340176 35.9787632,32.9731174 L35.9787632,3.00564577 C35.9787632,1.34567345 34.6340176,0 32.9731174,0 L3.00564577,0 Z M28.5213947,12.9429474 C28.5296053,13.1542105 28.5341053,13.3662632 28.5341053,13.5798158 C28.5341053,22.1328947 21.6000789,29.0677105 13.0462105,29.0677105 C10.0013684,29.0677105 7.16107895,28.1888684 4.76660526,26.6702368 C4.76605263,26.6701579 4.7655,26.6700789 4.76502632,26.67 L4.76660526,26.6702368 L4.76660526,26.6702368 C9.44763158,27.3683684 12.7450263,24.3896053 12.7450263,24.3896053 C8.57407895,24.0652105 7.74994737,20.5940526 7.74994737,20.5940526 C9.22365789,20.8435263 10.1474211,20.4936316 10.1474211,20.4936316 C5.45281579,19.3953158 5.85213158,15.0992368 5.85213158,15.0992368 C6.93923684,15.7488158 8.19947368,15.7990263 8.19947368,15.7990263 C4.05402632,12.1526053 6.65155263,8.60652632 6.65155263,8.60652632 C10.9977632,13.8697895 17.3864211,14.2278947 17.8059474,14.2451842 C17.7138158,13.8495789 17.6651053,13.4375526 17.6651053,13.0142368 C17.6651053,10.0143947 20.0977895,7.58242105 23.0999211,7.58242105 C24.6650526,7.58242105 26.0750526,8.24321053 27.0670263,9.30189474 C27.342,9.22476316 27.6086842,9.14155263 27.8634474,9.05692105 C29.4023684,8.54368421 30.5014737,7.95702632 30.5014737,7.95702632 C30.2362895,9.54615789 28.2770526,10.8797368 28.1369211,10.9733684 C28.1317105,10.9770789 28.1287105,10.9785789 28.1287105,10.9785789 C28.1317105,10.9785789 28.1354211,10.9778684 28.1384211,10.9778684 C29.6593421,10.8257368 31.2132632,10.1799474 31.2132632,10.1799474 C30.7443158,11.1657632 28.8307895,12.6993947 28.5213947,12.9429474 Z" id="Shape" fill="#40ACEB" fill-rule="nonzero"></path>
                            <path d="M28.5213947,12.9429474 C28.5296053,13.1542105 28.5341053,13.3662632 28.5341053,13.5798158 C28.5341053,22.1328947 21.6000789,29.0677105 13.0462105,29.0677105 C10.0013684,29.0677105 7.16107895,28.1888684 4.76660526,26.6702368 C4.76605263,26.6701579 4.7655,26.6700789 4.76502632,26.67 L4.76660526,26.6702368 L4.76660526,26.6702368 C9.44763158,27.3683684 12.7450263,24.3896053 12.7450263,24.3896053 C8.57407895,24.0652105 7.74994737,20.5940526 7.74994737,20.5940526 C9.22365789,20.8435263 10.1474211,20.4936316 10.1474211,20.4936316 C5.45281579,19.3953158 5.85213158,15.0992368 5.85213158,15.0992368 C6.93923684,15.7488158 8.19947368,15.7990263 8.19947368,15.7990263 C4.05402632,12.1526053 6.65155263,8.60652632 6.65155263,8.60652632 C10.9977632,13.8697895 17.3864211,14.2278947 17.8059474,14.2451842 C17.7138158,13.8495789 17.6651053,13.4375526 17.6651053,13.0142368 C17.6651053,10.0143947 20.0977895,7.58242105 23.0999211,7.58242105 C24.6650526,7.58242105 26.0750526,8.24321053 27.0670263,9.30189474 C27.342,9.22476316 27.6086842,9.14155263 27.8634474,9.05692105 C29.4023684,8.54368421 30.5014737,7.95702632 30.5014737,7.95702632 C30.2362895,9.54615789 28.2770526,10.8797368 28.1369211,10.9733684 C28.1317105,10.9770789 28.1287105,10.9785789 28.1287105,10.9785789 C28.1317105,10.9785789 28.1354211,10.9778684 28.1384211,10.9778684 C29.6593421,10.8257368 31.2132632,10.1799474 31.2132632,10.1799474 C30.7443158,11.1657632 28.8307895,12.6993947 28.5213947,12.9429474 Z" id="Path" fill="#FFFFFF"></path>
                        </g>
                    </g>
                </g>
            </g>
        </g>
    </g>
</svg>