<?xml version="1.0" encoding="UTF-8"?>
<svg width="52px" height="52px" viewBox="0 0 52 52" version="1.1" xmlns="http://www.w3.org/2000/svg" xmlns:xlink="http://www.w3.org/1999/xlink">
    <!-- Generator: Sketch 42 (36781) - http://www.bohemiancoding.com/sketch -->
    <title>play-button (1)</title>
    <desc>Created with Sketch.</desc>
    <defs>
        <filter x="-50%" y="-50%" width="200%" height="200%" filterUnits="objectBoundingBox" id="filter-1">
            <feOffset dx="0" dy="2" in="SourceAlpha" result="shadowOffsetOuter1"></feOffset>
            <feGaussianBlur stdDeviation="2" in="shadowOffsetOuter1" result="shadowBlurOuter1"></feGaussianBlur>
            <feColorMatrix values="0 0 0 0 0   0 0 0 0 0   0 0 0 0 0  0 0 0 0.5 0" type="matrix" in="shadowBlurOuter1" result="shadowMatrixOuter1"></feColorMatrix>
            <feMerge>
                <feMergeNode in="shadowMatrixOuter1"></feMergeNode>
                <feMergeNode in="SourceGraphic"></feMergeNode>
            </feMerge>
        </filter>
    </defs>
    <g id="Page-1" stroke="none" stroke-width="1" fill="none" fill-rule="evenodd" opacity="0.9">
        <g id="Desktop-HD-3" transform="translate(-355.000000, -563.000000)" fill-rule="nonzero" fill="#FFFFFF">
            <g id="Group-2" transform="translate(140.000000, 565.000000)">
                <g id="play-button-(1)" filter="url(#filter-1)" transform="translate(219.000000, 0.000000)">
                    <g id="Capa_1">
                        <path d="M22,0 C9.84989844,0 0,9.84972656 0,22 C0,34.1502734 9.84989844,44 22,44 C34.1501016,44 44,34.1502734 44,22 C44,9.84972656 34.1501016,0 22,0 Z M29.60375,23.1661719 L18.60375,30.0411719 C18.3811719,30.1801328 18.1280859,30.25 17.875,30.25 C17.6457188,30.25 17.4160938,30.1929375 17.2082969,30.0774375 C16.7712187,29.8350937 16.5,29.3751562 16.5,28.875 L16.5,15.125 C16.5,14.6248437 16.7712187,14.1649062 17.2082969,13.9225625 C17.645375,13.6788437 18.1798203,13.693625 18.60375,13.9588281 L29.60375,20.8338281 C30.0055937,21.085625 30.25,21.5260547 30.25,22 C30.25,22.4739453 30.0055937,22.9144609 29.60375,23.1661719 Z" id="Shape"></path>
                    </g>
                </g>
            </g>
        </g>
    </g>
</svg>