<?xml version="1.0" encoding="UTF-8"?>
<svg width="164px" height="40px" viewBox="0 0 164 40" version="1.1" xmlns="http://www.w3.org/2000/svg" xmlns:xlink="http://www.w3.org/1999/xlink">
    <!-- Generator: Sketch 42 (36781) - http://www.bohemiancoding.com/sketch -->
    <title>Group 6</title>
    <desc>Created with Sketch.</desc>
    <defs>
        <filter x="-50%" y="-50%" width="200%" height="200%" filterUnits="objectBoundingBox" id="filter-1">
            <feOffset dx="0" dy="2" in="SourceAlpha" result="shadowOffsetOuter1"></feOffset>
            <feGaussianBlur stdDeviation="2" in="shadowOffsetOuter1" result="shadowBlurOuter1"></feGaussianBlur>
            <feColorMatrix values="0 0 0 0 0   0 0 0 0 0   0 0 0 0 0  0 0 0 0.5 0" type="matrix" in="shadowBlurOuter1" result="shadowMatrixOuter1"></feColorMatrix>
            <feMerge>
                <feMergeNode in="shadowMatrixOuter1"></feMergeNode>
                <feMergeNode in="SourceGraphic"></feMergeNode>
            </feMerge>
        </filter>
    </defs>
    <g id="Page-1" stroke="none" stroke-width="1" fill="none" fill-rule="evenodd">
        <g id="Desktop-HD-3" transform="translate(-13.000000, -15.000000)">
            <g id="Group-6" transform="translate(17.000000, 17.000000)">
                <g id="FINAL-DSNY-Web" filter="url(#filter-1)" fill-rule="nonzero">
                    <g id="Layer_1">
                        <g id="XMLID_92_">
                            <path d="M15.986722,0.212448133 C7.27634855,0.212448133 0.212448133,7.27634855 0.212448133,15.986722 C0.212448133,24.6970954 7.27634855,31.7609959 15.986722,31.7609959 C24.6970954,31.7609959 31.7609959,24.6970954 31.7609959,15.986722 C31.7742739,7.27634855 24.7103734,0.212448133 15.986722,0.212448133 Z" id="Shape" fill="#E6E6E6"></path>
                            <path d="M15.986722,31.986722 C7.17012448,31.986722 0,24.8033195 0,15.986722 C0,7.17012448 7.17012448,0 15.986722,0 C24.8033195,0 31.973444,7.17012448 31.973444,15.986722 C31.986722,24.8033195 24.8033195,31.986722 15.986722,31.986722 Z M15.986722,0.424896266 C7.40912863,0.424896266 0.424896266,7.40912863 0.424896266,15.986722 C0.424896266,24.5643154 7.40912863,31.5485477 15.986722,31.5485477 C24.5643154,31.5485477 31.5485477,24.5643154 31.5485477,15.986722 C31.5485477,7.40912863 24.5775934,0.424896266 15.986722,0.424896266 Z" id="Shape" fill="#000000"></path>
                        </g>
                        <g id="XMLID_65_" transform="translate(4.116183, 3.983402)" fill="#015949">
                            <ellipse id="Oval" cx="11.8439834" cy="11.8838174" rx="11.8041494" ry="11.8041494"></ellipse>
                        </g>
                        <g id="XMLID_93_" transform="translate(3.983402, 3.983402)" fill="#000000">
                            <path d="M12.0033195,23.980083 C5.40414938,23.980083 0.0265560166,18.6024896 0.0265560166,12.0033195 C0.0265560166,5.40414938 5.40414938,0.0265560166 12.0033195,0.0265560166 C18.6024896,0.0265560166 23.980083,5.40414938 23.980083,12.0033195 C23.980083,18.6157676 18.6157676,23.980083 12.0033195,23.980083 Z M12.0033195,0.371784232 C5.59004149,0.371784232 0.358506224,5.59004149 0.358506224,12.0165975 C0.358506224,18.4431535 5.57676349,23.6614108 12.0033195,23.6614108 C18.4165975,23.6614108 23.6481328,18.4431535 23.6481328,12.0165975 C23.6481328,5.59004149 18.4298755,0.371784232 12.0033195,0.371784232 Z" id="Shape"></path>
                        </g>
                        <g id="Group" transform="translate(5.311203, 1.460581)" fill="#000000">
                            <polygon id="Shape" points="0.119502075 4.46141079 0.371784232 4.22240664 1.9253112 4.6473029 1.9253112 4.6473029 0.995850622 3.65145228 1.22157676 3.43900415 2.48298755 4.793361 2.23070539 5.03236515 0.690456432 4.60746888 0.690456432 4.60746888 1.61991701 5.6033195 1.39419087 5.81576763"></polygon>
                            <polygon id="Shape" points="1.7526971 3.02738589 2.84149378 2.25726141 3.00082988 2.48298755 2.17759336 3.06721992 2.45643154 3.46556017 3.22655602 2.93443983 3.37261411 3.14688797 2.60248963 3.6780083 2.90788382 4.12946058 3.74439834 3.54522822 3.90373444 3.77095436 2.78838174 4.54107884"></polygon>
                            <polygon id="Shape" points="3.2 2.00497925 3.49211618 1.85892116 4.40829876 2.98755187 4.40829876 2.98755187 4.12946058 1.55352697 4.43485477 1.40746888 5.37759336 2.52282158 5.37759336 2.52282158 5.07219917 1.10207469 5.36431535 0.956016598 5.70954357 2.84149378 5.41742739 2.98755187 4.46141079 1.87219917 4.46141079 1.87219917 4.74024896 3.31950207 4.43485477 3.46556017"></polygon>
                            <polygon id="Shape" points="7.48879668 1.52697095 6.5593361 0.584232365 6.93112033 0.504564315 7.59502075 1.20829876 7.88713693 0.292116183 8.24564315 0.212448133 7.82074689 1.46058091 7.98008299 2.16431535 7.66141079 2.23070539"></polygon>
                            <path d="M9.36099585,0.0265560166 C9.49377593,0.0132780083 9.62655602,0.0265560166 9.73278008,0.0796680498 C9.85228216,0.119502075 9.94522822,0.185892116 10.0248963,0.265560166 C10.1045643,0.345228216 10.1709544,0.451452282 10.2240664,0.557676349 C10.2771784,0.677178423 10.3037344,0.796680498 10.3170124,0.929460581 C10.3302905,1.06224066 10.3170124,1.19502075 10.2904564,1.31452282 C10.2639004,1.4340249 10.2107884,1.54024896 10.1443983,1.63319502 C10.0780083,1.72614108 9.98506224,1.80580913 9.87883817,1.85892116 C9.77261411,1.9253112 9.65311203,1.95186722 9.50705394,1.96514523 C9.37427386,1.97842324 9.24149378,1.96514523 9.13526971,1.9120332 C9.01576763,1.87219917 8.92282158,1.80580913 8.84315353,1.72614108 C8.76348548,1.64647303 8.69709544,1.54024896 8.6439834,1.4340249 C8.59087137,1.31452282 8.56431535,1.19502075 8.55103734,1.06224066 C8.53775934,0.929460581 8.55103734,0.809958506 8.57759336,0.690456432 C8.60414938,0.570954357 8.65726141,0.46473029 8.72365145,0.371784232 C8.79004149,0.278838174 8.88298755,0.199170124 8.98921162,0.146058091 C9.09543568,0.0929460581 9.22821577,0.0398340249 9.36099585,0.0265560166 Z M9.38755187,0.292116183 C9.29460581,0.305394191 9.20165975,0.331950207 9.13526971,0.371784232 C9.06887967,0.411618257 9.01576763,0.478008299 8.97593361,0.54439834 C8.93609959,0.610788382 8.90954357,0.690456432 8.89626556,0.78340249 C8.88298755,0.863070539 8.88298755,0.956016598 8.88298755,1.04896266 C8.89626556,1.14190871 8.90954357,1.22157676 8.93609959,1.30124481 C8.9626556,1.38091286 9.00248963,1.46058091 9.05560166,1.51369295 C9.10871369,1.58008299 9.16182573,1.61991701 9.24149378,1.65975104 C9.32116183,1.69958506 9.40082988,1.71286307 9.50705394,1.69958506 C9.6,1.68630705 9.69294606,1.65975104 9.7593361,1.61991701 C9.82572614,1.58008299 9.87883817,1.51369295 9.9186722,1.4473029 C9.95850622,1.38091286 9.98506224,1.30124481 9.99834025,1.20829876 C10.0116183,1.12863071 10.0116183,1.03568465 10.0116183,0.942738589 C9.99834025,0.849792531 9.98506224,0.770124481 9.95850622,0.690456432 C9.93195021,0.610788382 9.89211618,0.531120332 9.83900415,0.478008299 C9.78589212,0.411618257 9.73278008,0.371784232 9.65311203,0.331950207 C9.57344398,0.292116183 9.48049793,0.278838174 9.38755187,0.292116183 Z" id="Shape"></path>
                            <path d="M10.7950207,0 L11.6846473,0.0531120332 C11.8838174,0.0663900415 12.0431535,0.119502075 12.1360996,0.212448133 C12.2290456,0.305394191 12.2688797,0.438174274 12.2688797,0.584232365 C12.2688797,0.677178423 12.2423237,0.743568465 12.2157676,0.796680498 C12.1892116,0.849792531 12.1493776,0.902904564 12.1095436,0.929460581 C12.0697095,0.956016598 12.0431535,0.982572614 12.0033195,0.995850622 C11.9634855,1.00912863 11.9369295,1.02240664 11.9236515,1.02240664 L11.9236515,1.02240664 C11.9502075,1.02240664 11.9767635,1.03568465 12.0165975,1.04896266 C12.0431535,1.06224066 12.0697095,1.08879668 12.0962656,1.1153527 C12.1228216,1.14190871 12.1360996,1.19502075 12.1626556,1.23485477 C12.1759336,1.2879668 12.1759336,1.34107884 12.1759336,1.42074689 C12.1626556,1.52697095 12.1759336,1.63319502 12.1759336,1.71286307 C12.1892116,1.80580913 12.2024896,1.87219917 12.2423237,1.9120332 L11.8970954,1.88547718 C11.8705394,1.84564315 11.8705394,1.79253112 11.8572614,1.7526971 L11.8572614,1.606639 L11.8572614,1.38091286 C11.8572614,1.31452282 11.8307054,1.26141079 11.8041494,1.22157676 C11.7775934,1.18174274 11.7377593,1.14190871 11.6979253,1.12863071 C11.6580913,1.10207469 11.5917012,1.08879668 11.5120332,1.08879668 L11.0340249,1.06224066 L10.9809129,1.81908714 L10.6622407,1.79253112 L10.7950207,0 Z M11.0605809,0.876348548 L11.5917012,0.916182573 C11.6979253,0.929460581 11.7775934,0.902904564 11.8307054,0.863070539 C11.8838174,0.823236515 11.9236515,0.743568465 11.9236515,0.650622407 C11.9236515,0.597510373 11.9236515,0.54439834 11.9103734,0.504564315 C11.8970954,0.46473029 11.8705394,0.438174274 11.8439834,0.411618257 C11.8174274,0.385062241 11.7775934,0.371784232 11.7377593,0.358506224 C11.6979253,0.345228216 11.6580913,0.345228216 11.6182573,0.345228216 L11.0871369,0.305394191 L11.0605809,0.876348548 Z" id="Shape"></path>
                            <polygon id="Shape" points="13.0788382 0.199170124 13.3975104 0.265560166 13.2248963 1.08879668 14.2074689 0.438174274 14.5925311 0.517842324 13.7161826 1.08879668 14.2605809 2.33692946 13.8622407 2.25726141 13.4506224 1.26141079 13.1319502 1.46058091 12.9991701 2.07136929 12.6804979 2.00497925"></polygon>
                            <path d="M16.8763485,2.03153527 C16.8896266,1.97842324 16.8896266,1.9253112 16.8896266,1.87219917 C16.8896266,1.81908714 16.8763485,1.77925311 16.8497925,1.72614108 C16.8232365,1.68630705 16.7966805,1.63319502 16.7568465,1.606639 C16.7170124,1.56680498 16.6639004,1.54024896 16.6107884,1.51369295 C16.5178423,1.47385892 16.4381743,1.46058091 16.3585062,1.46058091 C16.2788382,1.47385892 16.1991701,1.48713693 16.1327801,1.54024896 C16.06639,1.58008299 16,1.63319502 15.946888,1.71286307 C15.8937759,1.77925311 15.8539419,1.85892116 15.8141079,1.93858921 C15.7742739,2.01825726 15.7477178,2.09792531 15.7344398,2.19087137 C15.7211618,2.27053942 15.7211618,2.36348548 15.7344398,2.44315353 C15.7477178,2.52282158 15.7742739,2.58921162 15.8273859,2.65560166 C15.8804979,2.7219917 15.946888,2.77510373 16.039834,2.81493776 C16.1062241,2.84149378 16.1726141,2.85477178 16.2257261,2.85477178 C16.2921162,2.85477178 16.3452282,2.84149378 16.3983402,2.81493776 C16.4514523,2.78838174 16.5045643,2.76182573 16.5443983,2.70871369 C16.5842324,2.66887967 16.6240664,2.61576763 16.6639004,2.54937759 L16.9560166,2.68215768 C16.9029046,2.77510373 16.8365145,2.86804979 16.7701245,2.93443983 C16.6904564,3.00082988 16.6107884,3.05394191 16.5178423,3.08049793 C16.4248963,3.10705394 16.3319502,3.13360996 16.2257261,3.12033195 C16.1195021,3.12033195 16.026556,3.09377593 15.920332,3.0406639 C15.7875519,2.98755187 15.6946058,2.90788382 15.6149378,2.81493776 C15.5352697,2.7219917 15.4821577,2.61576763 15.4423237,2.50954357 C15.4024896,2.4033195 15.4024896,2.28381743 15.4024896,2.15103734 C15.4157676,2.03153527 15.4423237,1.89875519 15.4954357,1.77925311 C15.5485477,1.65975104 15.6149378,1.55352697 15.7078838,1.46058091 C15.7875519,1.36763485 15.8937759,1.30124481 16,1.24813278 C16.1062241,1.19502075 16.2124481,1.16846473 16.3452282,1.16846473 C16.4647303,1.16846473 16.5842324,1.19502075 16.7170124,1.24813278 C16.8099585,1.2879668 16.8896266,1.34107884 16.9692946,1.40746888 C17.0489627,1.47385892 17.1020747,1.54024896 17.1419087,1.61991701 C17.1817427,1.69958506 17.2082988,1.77925311 17.2215768,1.87219917 C17.2348548,1.96514523 17.2215768,2.05809129 17.1817427,2.15103734 L16.8763485,2.03153527 Z" id="Shape"></path>
                            <polygon id="Shape" points="17.8854772 1.89875519 18.1643154 2.05809129 17.2348548 3.66473029 16.9560166 3.50539419"></polygon>
                            <polygon id="Shape" points="18.5759336 2.29709544 19.7975104 3.16016598 19.6381743 3.38589212 19.160166 3.0406639 18.2439834 4.32863071 17.9784232 4.14273859 18.8946058 2.85477178 18.4165975 2.50954357"></polygon>
                            <polygon id="Shape" points="19.7709544 4.6340249 20.0232365 3.33278008 20.3020747 3.58506224 20.1029046 4.52780083 21.0190871 4.24896266 21.2846473 4.50124481 20.0099585 4.85975104 19.5186722 5.39087137 19.279668 5.16514523"></polygon>
                        </g>
                        <g id="Group" transform="translate(1.460581, 18.323651)" fill="#000000">
                            <path d="M1.87219917,0.0796680498 L2.05809129,0.823236515 C2.09792531,0.956016598 2.09792531,1.08879668 2.07136929,1.19502075 C2.04481328,1.30124481 2.00497925,1.40746888 1.93858921,1.48713693 C1.87219917,1.56680498 1.79253112,1.64647303 1.68630705,1.69958506 C1.58008299,1.7526971 1.47385892,1.80580913 1.35435685,1.83236515 C1.23485477,1.85892116 1.1153527,1.87219917 0.995850622,1.87219917 C0.876348548,1.87219917 0.770124481,1.84564315 0.677178423,1.80580913 C0.584232365,1.7659751 0.491286307,1.69958506 0.424896266,1.606639 C0.358506224,1.51369295 0.305394191,1.40746888 0.265560166,1.26141079 L0.0796680498,0.517842324 L1.87219917,0.0796680498 Z M0.411618257,0.78340249 L0.491286307,1.08879668 C0.517842324,1.20829876 0.557676349,1.30124481 0.610788382,1.38091286 C0.663900415,1.4473029 0.730290456,1.50041494 0.796680498,1.52697095 C0.863070539,1.55352697 0.942738589,1.56680498 1.02240664,1.56680498 C1.10207469,1.56680498 1.19502075,1.55352697 1.2879668,1.52697095 C1.38091286,1.50041494 1.46058091,1.47385892 1.54024896,1.4340249 C1.61991701,1.39419087 1.67302905,1.35435685 1.72614108,1.2879668 C1.77925311,1.23485477 1.80580913,1.15518672 1.81908714,1.07551867 C1.83236515,0.995850622 1.81908714,0.889626556 1.79253112,0.756846473 L1.71286307,0.451452282 L0.411618257,0.78340249 Z" id="Shape"></path>
                            <polygon id="Shape" points="2.35020747 1.84564315 2.77510373 2.92116183 2.50954357 3.02738589 2.19087137 2.20414938 1.73941909 2.37676349 2.03153527 3.13360996 1.77925311 3.22655602 1.48713693 2.46970954 0.982572614 2.66887967 1.31452282 3.50539419 1.04896266 3.61161826 0.62406639 2.50954357"></polygon>
                            <path d="M2.8813278,3.14688797 L3.25311203,3.8373444 C3.30622407,3.94356846 3.34605809,4.04979253 3.34605809,4.12946058 C3.34605809,4.22240664 3.33278008,4.28879668 3.30622407,4.35518672 C3.27966805,4.42157676 3.23983402,4.4746888 3.18672199,4.51452282 C3.13360996,4.55435685 3.08049793,4.59419087 3.02738589,4.62074689 C2.97427386,4.6473029 2.92116183,4.67385892 2.85477178,4.68713693 C2.78838174,4.70041494 2.7219917,4.71369295 2.65560166,4.70041494 C2.58921162,4.68713693 2.50954357,4.66058091 2.44315353,4.60746888 C2.37676349,4.55435685 2.31037344,4.4746888 2.2439834,4.36846473 L2.01825726,3.95684647 L1.39419087,4.28879668 L1.24813278,4.02323651 L2.8813278,3.14688797 Z M2.25726141,3.82406639 L2.46970954,4.22240664 C2.48298755,4.24896266 2.50954357,4.27551867 2.53609959,4.30207469 C2.5626556,4.32863071 2.58921162,4.35518672 2.62904564,4.36846473 C2.66887967,4.38174274 2.70871369,4.39502075 2.74854772,4.39502075 C2.78838174,4.39502075 2.84149378,4.38174274 2.89460581,4.35518672 C2.94771784,4.32863071 2.98755187,4.30207469 3.01410788,4.26224066 C3.0406639,4.22240664 3.05394191,4.19585062 3.06721992,4.1560166 C3.08049793,4.11618257 3.06721992,4.08962656 3.06721992,4.04979253 C3.05394191,4.00995851 3.0406639,3.98340249 3.02738589,3.94356846 L2.81493776,3.54522822 L2.25726141,3.82406639 Z" id="Shape"></path>
                            <path d="M3.8373444,4.793361 L4.02323651,5.05892116 L2.8813278,6.66556017 L2.69543568,6.4 L3.00082988,5.98838174 L2.60248963,5.40414938 L2.11120332,5.55020747 L1.9253112,5.2846473 L3.8373444,4.793361 Z M2.85477178,5.33775934 L3.16016598,5.77593361 L3.66473029,5.1120332 L3.66473029,5.1120332 L2.85477178,5.33775934 Z" id="Shape"></path>
                            <path d="M4.50124481,5.72282158 L5.04564315,6.33360996 C5.16514523,6.47966805 5.23153527,6.61244813 5.23153527,6.73195021 C5.23153527,6.86473029 5.16514523,6.98423237 5.04564315,7.07717842 C4.97925311,7.13029046 4.91286307,7.17012448 4.85975104,7.1966805 C4.806639,7.22323651 4.75352697,7.22323651 4.70041494,7.22323651 C4.6473029,7.22323651 4.60746888,7.22323651 4.58091286,7.20995851 C4.55435685,7.1966805 4.52780083,7.18340249 4.51452282,7.18340249 L4.51452282,7.18340249 C4.52780083,7.20995851 4.54107884,7.23651452 4.55435685,7.26307054 C4.56763485,7.28962656 4.56763485,7.32946058 4.55435685,7.36929461 C4.54107884,7.40912863 4.52780083,7.44896266 4.51452282,7.48879668 C4.4879668,7.52863071 4.44813278,7.58174274 4.39502075,7.63485477 C4.3153527,7.70124481 4.24896266,7.78091286 4.18257261,7.8473029 C4.12946058,7.91369295 4.08962656,7.98008299 4.08962656,8.03319502 L3.87717842,7.79419087 C3.89045643,7.75435685 3.91701245,7.71452282 3.94356846,7.6746888 C3.98340249,7.63485477 4.00995851,7.60829876 4.04979253,7.58174274 C4.11618257,7.52863071 4.16929461,7.47551867 4.20912863,7.42240664 C4.24896266,7.36929461 4.27551867,7.32946058 4.28879668,7.27634855 C4.30207469,7.23651452 4.30207469,7.18340249 4.28879668,7.14356846 C4.27551867,7.10373444 4.24896266,7.05062241 4.19585062,6.99751037 L3.90373444,6.66556017 L3.33278008,7.17012448 L3.13360996,6.94439834 L4.50124481,5.72282158 Z M4.06307054,6.50622407 L4.39502075,6.86473029 C4.46141079,6.93112033 4.52780083,6.97095436 4.59419087,6.97095436 C4.66058091,6.97095436 4.74024896,6.94439834 4.806639,6.8780083 C4.84647303,6.83817427 4.88630705,6.79834025 4.89958506,6.75850622 C4.91286307,6.7186722 4.92614108,6.69211618 4.92614108,6.65228216 C4.92614108,6.61244813 4.91286307,6.58589212 4.89958506,6.5593361 C4.88630705,6.53278008 4.85975104,6.49294606 4.83319502,6.46639004 L4.51452282,6.10788382 L4.06307054,6.50622407 Z" id="Shape"></path>
                            <polygon id="Shape" points="5.49709544 6.82489627 6.46639004 7.6879668 6.28049793 7.90041494 5.89543568 7.55518672 4.84647303 8.73692946 4.6340249 8.55103734 5.68298755 7.36929461 5.31120332 7.0373444"></polygon>
                            <polygon id="Shape" points="6.62572614 7.82074689 6.95767635 8.04647303 6.51950207 9.50705394 6.51950207 9.50705394 7.70124481 8.55103734 8.03319502 8.77676349 6.99751037 10.3170124 6.77178423 10.1576763 7.56846473 8.97593361 7.56846473 8.97593361 6.38672199 9.90539419 6.18755187 9.77261411 6.61244813 8.3253112 6.61244813 8.3253112 5.81576763 9.50705394 5.59004149 9.34771784"></polygon>
                            <polygon id="Shape" points="8.3120332 8.92282158 9.34771784 9.4406639 9.22821577 9.69294606 8.44481328 9.29460581 8.23236515 9.73278008 8.9626556 10.0912863 8.84315353 10.3302905 8.11286307 9.97178423 7.87385892 10.4630705 8.67053942 10.8614108 8.55103734 11.1136929 7.50207469 10.5825726"></polygon>
                            <polygon id="Shape" points="9.56016598 9.52033195 9.85228216 9.62655602 10.1045643 11.166805 10.1045643 11.166805 10.5692946 9.87883817 10.8348548 9.97178423 10.2107884 11.7112033 9.9186722 11.6049793 9.66639004 10.0647303 9.66639004 10.0647303 9.20165975 11.3526971 8.93609959 11.259751"></polygon>
                            <polygon id="Shape" points="10.9676349 10.0248963 12.2423237 10.3170124 12.1759336 10.5958506 11.6713693 10.4763485 11.3128631 12.0033195 11.0340249 11.9369295 11.3925311 10.4099585 10.9012448 10.2904564"></polygon>
                            <path d="M13.9286307,10.5692946 C14.0481328,10.5692946 14.1543568,10.6091286 14.2473029,10.6489627 C14.340249,10.7020747 14.419917,10.7684647 14.4863071,10.8481328 C14.5526971,10.9278008 14.5925311,11.0207469 14.6323651,11.126971 C14.6589212,11.233195 14.6721992,11.3394191 14.6721992,11.4589212 C14.6721992,11.5784232 14.6456432,11.6846473 14.6058091,11.7908714 C14.5659751,11.8970954 14.5128631,11.9767635 14.446473,12.0564315 C14.380083,12.1360996 14.2871369,12.1892116 14.1941909,12.2290456 C14.1012448,12.2688797 13.9817427,12.2821577 13.8622407,12.2821577 C13.7427386,12.2821577 13.6365145,12.2556017 13.5435685,12.2024896 C13.4506224,12.1493776 13.3709544,12.0829876 13.3045643,12.0033195 C13.2381743,11.9236515 13.1983402,11.8307054 13.1585062,11.7244813 C13.1319502,11.6182573 13.1186722,11.5120332 13.1186722,11.3925311 C13.1186722,11.273029 13.1452282,11.166805 13.1850622,11.0738589 C13.2248963,10.9676349 13.2780083,10.8879668 13.3443983,10.8082988 C13.4107884,10.7286307 13.5037344,10.6755187 13.5966805,10.6356846 C13.6896266,10.5825726 13.7958506,10.5560166 13.9286307,10.5692946 Z M13.9153527,10.7950207 C13.8356846,10.7950207 13.7560166,10.8082988 13.6896266,10.8348548 C13.6232365,10.8614108 13.5701245,10.9145228 13.5302905,10.9676349 C13.4904564,11.0207469 13.4506224,11.0871369 13.4373444,11.166805 C13.4107884,11.246473 13.3975104,11.3128631 13.3975104,11.3925311 C13.3975104,11.4721992 13.3975104,11.5518672 13.4107884,11.6182573 C13.4240664,11.6979253 13.4506224,11.7643154 13.4904564,11.8174274 C13.5302905,11.8838174 13.5701245,11.9236515 13.6365145,11.9634855 C13.7029046,12.0033195 13.7692946,12.0165975 13.8622407,12.0298755 C13.9419087,12.0298755 14.0215768,12.0165975 14.0879668,11.9900415 C14.1543568,11.9634855 14.2074689,11.9103734 14.2473029,11.8572614 C14.2871369,11.8041494 14.326971,11.7377593 14.340249,11.6580913 C14.366805,11.5784232 14.380083,11.5120332 14.380083,11.4323651 C14.380083,11.3526971 14.380083,11.273029 14.366805,11.206639 C14.353527,11.126971 14.326971,11.0605809 14.2871369,11.0074689 C14.2473029,10.9410788 14.2074689,10.9012448 14.1410788,10.8614108 C14.0746888,10.8215768 13.9950207,10.8082988 13.9153527,10.7950207 Z" id="Shape"></path>
                            <polygon id="Shape" points="14.9244813 10.6224066 16.039834 10.5427386 16.053112 10.7817427 15.2165975 10.8348548 15.2431535 11.259751 15.973444 11.206639 15.986722 11.4323651 15.2564315 11.4854772 15.3095436 12.2024896 15.0307054 12.2157676"></polygon>
                            <path d="M17.6995851,11.3925311 C17.7128631,11.4589212 17.7394191,11.5120332 17.7792531,11.5651452 C17.8190871,11.6049793 17.8589212,11.6448133 17.9120332,11.6580913 C17.9651452,11.6846473 18.0182573,11.6846473 18.0713693,11.6846473 C18.1244813,11.6846473 18.1908714,11.6713693 18.2572614,11.6580913 C18.3236515,11.6448133 18.3767635,11.6182573 18.4298755,11.5917012 C18.4697095,11.5651452 18.5095436,11.5385892 18.5360996,11.4987552 C18.5626556,11.4721992 18.5759336,11.4323651 18.5759336,11.3925311 L18.5759336,11.2863071 C18.5626556,11.219917 18.5228216,11.166805 18.4829876,11.140249 C18.4431535,11.1136929 18.4033195,11.1004149 18.3634855,11.1004149 C18.2970954,11.0871369 18.2174274,11.0871369 18.1244813,11.0871369 L17.7925311,11.0871369 C17.7128631,11.0871369 17.633195,11.0738589 17.580083,11.0605809 C17.526971,11.0473029 17.4738589,11.0207469 17.4340249,10.9809129 C17.3941909,10.9543568 17.3543568,10.9145228 17.3410788,10.8746888 C17.3145228,10.8348548 17.3012448,10.7950207 17.2879668,10.7419087 C17.2614108,10.6489627 17.2614108,10.5692946 17.2879668,10.4896266 C17.3145228,10.4099585 17.3410788,10.3435685 17.3941909,10.2904564 C17.4473029,10.2240664 17.5004149,10.1842324 17.580083,10.1443983 C17.659751,10.1045643 17.7261411,10.0780083 17.8058091,10.0514523 C17.8987552,10.0248963 17.9917012,10.0116183 18.0846473,10.0248963 C18.1775934,10.0248963 18.2572614,10.0381743 18.3369295,10.0780083 C18.4165975,10.1045643 18.4829876,10.1576763 18.5360996,10.2240664 C18.5892116,10.2904564 18.6290456,10.3568465 18.6556017,10.4630705 L18.3369295,10.5427386 C18.2970954,10.4232365 18.2439834,10.3568465 18.1510373,10.3302905 C18.0713693,10.3037344 17.9784232,10.3037344 17.8589212,10.3302905 C17.8190871,10.3435685 17.7792531,10.3568465 17.7526971,10.3701245 C17.7128631,10.3834025 17.6863071,10.4099585 17.659751,10.4365145 C17.633195,10.4630705 17.606639,10.4896266 17.593361,10.5294606 C17.580083,10.5692946 17.580083,10.6091286 17.593361,10.6489627 C17.606639,10.7153527 17.646473,10.7551867 17.6863071,10.7817427 C17.7394191,10.8082988 17.7925311,10.8215768 17.8589212,10.8215768 L17.9385892,10.8215768 L18.0979253,10.8215768 L18.2705394,10.8215768 L18.3900415,10.8215768 C18.4564315,10.8215768 18.5095436,10.8348548 18.5626556,10.8614108 C18.6157676,10.8879668 18.6556017,10.9145228 18.6954357,10.9410788 C18.7352697,10.9809129 18.7751037,11.0074689 18.8016598,11.0605809 C18.8282158,11.1004149 18.8414938,11.153527 18.8547718,11.193361 C18.8813278,11.2995851 18.8813278,11.3792531 18.8547718,11.4721992 C18.8282158,11.5518672 18.7883817,11.6315353 18.7352697,11.6846473 C18.6821577,11.7510373 18.6157676,11.8041494 18.5360996,11.8439834 C18.4564315,11.8838174 18.3767635,11.9236515 18.2838174,11.9502075 C18.1775934,11.9767635 18.0846473,11.9900415 17.9784232,11.9900415 C17.8854772,11.9900415 17.7925311,11.9767635 17.7128631,11.9369295 C17.633195,11.8970954 17.566805,11.8439834 17.5004149,11.7775934 C17.4340249,11.7112033 17.3941909,11.6182573 17.3676349,11.5120332 L17.6995851,11.3925311 Z" id="Shape"></path>
                            <path d="M19.3195021,9.58672199 L19.6381743,9.45394191 L21.0058091,10.8879668 L20.6871369,11.0207469 L20.3419087,10.6356846 L19.6647303,10.9145228 L19.6912863,11.4323651 L19.3858921,11.5651452 L19.3195021,9.58672199 Z M19.6514523,10.6622407 L20.1692946,10.4497925 L19.6116183,9.82572614 L19.5983402,9.82572614 L19.6514523,10.6622407 Z" id="Shape"></path>
                            <polygon id="Shape" points="20.4879668 9.06887967 20.766805 8.89626556 22.1609959 9.65311203 22.1609959 9.65311203 21.4572614 8.4846473 21.7095436 8.33858921 22.6655602 9.93195021 22.386722 10.1045643 21.0058091 9.34771784 21.0058091 9.34771784 21.7095436 10.5161826 21.4572614 10.6622407"></polygon>
                            <polygon id="Shape" points="22.0946058 8.04647303 22.360166 7.8473029 23.4755187 9.33443983 23.2099585 9.53360996"></polygon>
                            <polygon id="Shape" points="22.6257261 7.6746888 23.7410788 6.66556017 23.926971 6.8780083 23.4887967 7.27634855 24.5510373 8.44481328 24.3120332 8.65726141 23.2497925 7.48879668 22.8116183 7.88713693"></polygon>
                            <path d="M24.0995851,6.2406639 L24.3253112,5.97510373 L26.1975104,6.65228216 L25.9717842,6.91784232 L25.4937759,6.73195021 L25.0024896,7.28962656 L25.2547718,7.74107884 L25.0290456,7.993361 L24.0995851,6.2406639 Z M24.8697095,7.05062241 L25.2414938,6.62572614 L24.4580913,6.30705394 L24.4580913,6.30705394 L24.8697095,7.05062241 Z" id="Shape"></path>
                            <polygon id="Shape" points="24.6970954 5.55020747 25.546888 4.3153527 25.7726141 4.4746888 25.4406639 4.9659751 26.7419087 5.85560166 26.5560166 6.12116183 25.2547718 5.23153527 24.9228216 5.70954357"></polygon>
                            <polygon id="Shape" points="25.7062241 4.02323651 25.8655602 3.74439834 27.4854772 4.6473029 27.3261411 4.92614108"></polygon>
                            <path d="M26.3701245,2.57593361 C26.4232365,2.44315353 26.4896266,2.33692946 26.5825726,2.25726141 C26.6755187,2.17759336 26.7684647,2.11120332 26.8879668,2.0846473 C27.0074689,2.05809129 27.1136929,2.03153527 27.246473,2.04481328 C27.3659751,2.05809129 27.4987552,2.0846473 27.6182573,2.13775934 C27.7377593,2.19087137 27.8439834,2.25726141 27.9369295,2.33692946 C28.0298755,2.41659751 28.0962656,2.50954357 28.1493776,2.61576763 C28.2024896,2.7219917 28.2290456,2.82821577 28.2290456,2.94771784 C28.2290456,3.06721992 28.2157676,3.18672199 28.1626556,3.31950207 C28.1095436,3.45228216 28.0431535,3.55850622 27.9502075,3.63817427 C27.8572614,3.71784232 27.7643154,3.78423237 27.6448133,3.81078838 C27.5385892,3.85062241 27.4190871,3.86390041 27.2863071,3.85062241 C27.166805,3.8373444 27.0340249,3.81078838 26.9145228,3.75767635 C26.7950207,3.70456432 26.6887967,3.63817427 26.5958506,3.55850622 C26.5029046,3.47883817 26.4365145,3.38589212 26.3834025,3.27966805 C26.3302905,3.17344398 26.3037344,3.06721992 26.2904564,2.93443983 C26.2904564,2.82821577 26.3170124,2.70871369 26.3701245,2.57593361 Z M26.6091286,2.68215768 C26.5692946,2.77510373 26.5560166,2.85477178 26.5692946,2.94771784 C26.5825726,3.02738589 26.6091286,3.10705394 26.6489627,3.17344398 C26.6887967,3.23983402 26.7551867,3.30622407 26.8215768,3.3593361 C26.8879668,3.41244813 26.9676349,3.45228216 27.0473029,3.49211618 C27.126971,3.53195021 27.206639,3.54522822 27.2995851,3.55850622 C27.3925311,3.57178423 27.4721992,3.57178423 27.5518672,3.55850622 C27.6315353,3.54522822 27.6979253,3.50539419 27.7643154,3.45228216 C27.8307054,3.39917012 27.8838174,3.33278008 27.9236515,3.23983402 C27.9634855,3.14688797 27.9767635,3.06721992 27.9634855,2.97427386 C27.9502075,2.89460581 27.9236515,2.81493776 27.8838174,2.74854772 C27.8439834,2.68215768 27.7775934,2.61576763 27.7112033,2.5626556 C27.6448133,2.50954357 27.5651452,2.46970954 27.4854772,2.42987552 C27.4058091,2.39004149 27.3261411,2.37676349 27.233195,2.36348548 C27.140249,2.35020747 27.0605809,2.35020747 26.9809129,2.36348548 C26.9012448,2.37676349 26.8348548,2.41659751 26.7684647,2.46970954 C26.7020747,2.50954357 26.6489627,2.58921162 26.6091286,2.68215768 Z" id="Shape"></path>
                            <polygon id="Shape" points="26.8481328 1.4473029 26.9278008 1.12863071 28.4414938 0.677178423 28.4414938 0.677178423 27.1136929 0.345228216 27.180083 0.0663900415 28.9858921 0.517842324 28.9062241 0.836514523 27.3925311 1.2879668 27.3925311 1.30124481 28.720332 1.63319502 28.6539419 1.9120332"></polygon>
                        </g>
                        <g id="Group" transform="translate(1.195021, 9.029046)">
                            <g id="XMLID_22_" transform="translate(8.365145, 4.514523)">
                                <path d="M5.56348548,0.1593361 L0.252282158,3.57178423 C0.252282158,3.57178423 0.823236515,4.81991701 1.12863071,4.81991701 C3.00082988,4.85975104 6.86473029,1.06224066 6.86473029,1.06224066 L5.56348548,0.1593361 Z" id="Shape" fill="#FFFFFF"></path>
                                <path d="M1.14190871,4.9526971 L1.1153527,4.9526971 C0.770124481,4.93941909 0.318672199,4.02323651 0.132780083,3.62489627 L0.0929460581,3.53195021 L5.56348548,0.0132780083 L7.0373444,1.06224066 L6.93112033,1.16846473 C6.77178423,1.31452282 3.05394191,4.9526971 1.14190871,4.9526971 Z M0.398340249,3.62489627 C0.677178423,4.20912863 0.995850622,4.70041494 1.1153527,4.71369295 L1.14190871,4.71369295 C2.78838174,4.71369295 6.04149378,1.68630705 6.65228216,1.08879668 L5.55020747,0.305394191 L0.398340249,3.62489627 Z" id="Shape" fill="#000000"></path>
                            </g>
                            <g id="XMLID_21_" transform="translate(6.639004, 3.585062)">
                                <path d="M6.04149378,0.212448133 L0.239004149,3.78423237 C0.239004149,3.78423237 0.809958506,5.03236515 1.1153527,5.03236515 C2.98755187,5.07219917 7.34273859,1.1153527 7.34273859,1.1153527 L6.04149378,0.212448133 Z" id="Shape" fill="#FFFFFF"></path>
                                <path d="M1.14190871,5.15186722 L1.1153527,5.15186722 C0.770124481,5.15186722 0.318672199,4.22240664 0.132780083,3.82406639 L0.0929460581,3.73112033 L6.05477178,0.0531120332 L7.52863071,1.08879668 L7.42240664,1.19502075 C7.23651452,1.36763485 3.05394191,5.15186722 1.14190871,5.15186722 Z M0.398340249,3.8373444 C0.677178423,4.42157676 0.995850622,4.91286307 1.1153527,4.92614108 L1.14190871,4.92614108 C2.80165975,4.92614108 6.45311203,1.73941909 7.14356846,1.14190871 L6.04149378,0.358506224 L0.398340249,3.8373444 Z" id="Shape" fill="#000000"></path>
                            </g>
                            <g id="XMLID_20_" transform="translate(5.311203, 2.655602)">
                                <path d="M6.00165975,0.1593361 L0.199170124,3.73112033 C0.199170124,3.73112033 0.770124481,4.97925311 1.07551867,4.97925311 C2.94771784,5.01908714 7.30290456,1.06224066 7.30290456,1.06224066 L6.00165975,0.1593361 Z" id="Shape" fill="#FFFFFF"></path>
                                <path d="M1.08879668,5.1120332 L1.06224066,5.1120332 C0.717012448,5.09875519 0.265560166,4.18257261 0.0796680498,3.78423237 L0.0398340249,3.69128631 L6.00165975,0.0132780083 L7.47551867,1.04896266 L7.36929461,1.15518672 C7.18340249,1.32780083 3.00082988,5.1120332 1.08879668,5.1120332 Z M0.345228216,3.78423237 C0.62406639,4.36846473 0.942738589,4.85975104 1.06224066,4.87302905 L1.08879668,4.87302905 C2.74854772,4.87302905 6.4,1.68630705 7.09045643,1.08879668 L5.98838174,0.305394191 L0.345228216,3.78423237 Z" id="Shape" fill="#000000"></path>
                            </g>
                            <g id="XMLID_19_" transform="translate(2.921162, 1.991701)">
                                <path d="M7.59502075,0.252282158 L0.185892116,3.62489627 C0.185892116,3.62489627 0.650622407,4.66058091 0.982572614,4.70041494 C3.0406639,4.97925311 8.90954357,1.06224066 8.90954357,1.06224066 L7.59502075,0.252282158 Z" id="Shape" fill="#FFFFFF"></path>
                                <path d="M1.20829876,4.83319502 C1.12863071,4.83319502 1.03568465,4.83319502 0.969294606,4.81991701 C0.584232365,4.76680498 0.1593361,3.85062241 0.0796680498,3.66473029 L0.0265560166,3.55850622 L7.60829876,0.119502075 L9.13526971,1.06224066 L8.97593361,1.16846473 C8.75020747,1.32780083 3.45228216,4.83319502 1.20829876,4.83319502 Z M0.331950207,3.6780083 C0.54439834,4.11618257 0.836514523,4.56763485 0.995850622,4.58091286 C2.80165975,4.83319502 7.75435685,1.68630705 8.69709544,1.07551867 L7.58174274,0.385062241 L0.331950207,3.6780083 Z" id="Shape" fill="#000000"></path>
                            </g>
                            <g id="XMLID_18_" transform="translate(0.000000, 1.062241)">
                                <path d="M10.2639004,0.212448133 C10.2639004,0.212448133 2.39004149,2.74854772 0.305394191,3.29294606 C-0.172614108,3.41244813 0.836514523,5.01908714 1.16846473,5.08547718 C2.57593361,5.37759336 10.9278008,0.969294606 10.5958506,1.18174274 L10.2639004,0.212448133 Z" id="Shape" fill="#FFFFFF"></path>
                                <path d="M1.31452282,5.23153527 C1.24813278,5.23153527 1.19502075,5.23153527 1.14190871,5.21825726 C0.796680498,5.13858921 0.0663900415,3.9966805 0.0531120332,3.5186722 C0.0531120332,3.26639004 0.199170124,3.2 0.265560166,3.18672199 C2.33692946,2.65560166 10.1443983,0.132780083 10.2240664,0.106224066 L10.3302905,0.0663900415 L10.6755187,1.10207469 C10.6755187,1.1153527 10.6887967,1.1153527 10.6887967,1.12863071 L10.7419087,1.22157676 L10.5161826,1.38091286 L10.5029046,1.35435685 C10.3834025,1.40746888 10.1709544,1.51369295 9.94522822,1.63319502 C6.82489627,3.2 2.61576763,5.23153527 1.31452282,5.23153527 Z M10.1842324,0.358506224 C9.21493776,0.677178423 2.25726141,2.90788382 0.331950207,3.41244813 C0.318672199,3.41244813 0.292116183,3.42572614 0.292116183,3.50539419 C0.305394191,3.95684647 1.00912863,4.93941909 1.19502075,4.97925311 C1.23485477,4.99253112 1.2879668,4.99253112 1.34107884,4.99253112 C2.70871369,4.99253112 8.05975104,2.32365145 9.85228216,1.42074689 C10.1443983,1.2746888 10.3302905,1.18174274 10.4497925,1.12863071 L10.1842324,0.358506224 Z" id="Shape" fill="#000000"></path>
                            </g>
                            <g id="XMLID_15_" transform="translate(7.701245, 0.000000)">
                                <path d="M6.91784232,5.25809129 C6.30705394,5.07219917 5.40414938,4.74024896 4.81991701,4.1560166 C4.38174274,3.73112033 3.90373444,3.08049793 3.89045643,3.08049793 C3.86390041,3.05394191 3.8373444,3.02738589 3.79751037,3.02738589 L3.79751037,3.02738589 L3.65145228,3.02738589 C3.00082988,3.02738589 2.74854772,2.97427386 2.70871369,2.94771784 C2.65560166,2.86804979 2.62904564,2.35020747 2.65560166,1.9120332 C2.65560166,1.87219917 2.64232365,1.84564315 2.61576763,1.81908714 C2.58921162,1.79253112 2.5626556,1.77925311 2.53609959,1.77925311 C2.53609959,1.77925311 2.53609959,1.77925311 2.52282158,1.77925311 C2.50954357,1.77925311 1.26141079,1.87219917 0.54439834,1.88547718 C0.876348548,1.71286307 1.22157676,1.48713693 1.593361,1.26141079 C2.4033195,0.743568465 3.33278008,0.1593361 4.06307054,0.1593361 C4.83319502,0.1593361 5.29792531,0.863070539 5.48381743,2.31037344 C5.68298755,3.93029046 6.38672199,4.806639 6.91784232,5.25809129 Z" id="Shape" fill="#FFFFFF"></path>
                                <path d="M4.06307054,0.278838174 C4.3153527,0.278838174 5.1120332,0.278838174 5.36431535,2.32365145 C5.52365145,3.62489627 6.00165975,4.46141079 6.46639004,4.97925311 C5.93526971,4.78008299 5.32448133,4.4879668 4.89958506,4.06307054 C4.4746888,3.63817427 3.98340249,3.00082988 3.98340249,3.00082988 C3.94356846,2.93443983 3.86390041,2.90788382 3.79751037,2.90788382 L3.79751037,2.90788382 L3.66473029,2.90788382 C3.17344398,2.90788382 2.92116183,2.8813278 2.82821577,2.85477178 C2.78838174,2.70871369 2.77510373,2.29709544 2.80165975,1.9120332 C2.80165975,1.84564315 2.77510373,1.77925311 2.73526971,1.72614108 C2.69543568,1.68630705 2.62904564,1.65975104 2.5626556,1.65975104 L2.54937759,1.65975104 C2.53609959,1.65975104 1.7526971,1.71286307 1.07551867,1.7526971 C1.2746888,1.63319502 1.48713693,1.50041494 1.69958506,1.36763485 C2.46970954,0.863070539 3.38589212,0.278838174 4.06307054,0.278838174 L4.06307054,0.278838174 Z M4.06307054,0.0398340249 C2.84149378,0.0398340249 1.20829876,1.55352697 0.106224066,1.95186722 C-9.77926073e-13,1.99170124 0.119502075,2.00497925 0.345228216,2.00497925 C0.995850622,2.00497925 2.53609959,1.89875519 2.53609959,1.89875519 C2.53609959,1.89875519 2.48298755,2.90788382 2.62904564,3.02738589 C2.74854772,3.12033195 3.3593361,3.13360996 3.63817427,3.13360996 L3.78423237,3.13360996 C3.78423237,3.13360996 4.27551867,3.78423237 4.72697095,4.22240664 C5.73609959,5.20497925 7.55518672,5.52365145 7.55518672,5.52365145 C7.55518672,5.52365145 5.9219917,4.85975104 5.59004149,2.28381743 C5.39087137,0.597510373 4.806639,0.0398340249 4.06307054,0.0398340249 L4.06307054,0.0398340249 Z" id="Shape" fill="#000000"></path>
                            </g>
                        </g>
                        <g id="Group" transform="translate(15.402490, 9.029046)">
                            <g id="XMLID_26_" transform="translate(0.000000, 4.514523)">
                                <path d="M1.55352697,0.1593361 L6.86473029,3.57178423 C6.86473029,3.57178423 6.29377593,4.81991701 5.98838174,4.81991701 C4.11618257,4.85975104 0.252282158,1.06224066 0.252282158,1.06224066 L1.55352697,0.1593361 Z" id="Shape" fill="#FFFFFF"></path>
                                <path d="M5.96182573,4.93941909 C4.04979253,4.93941909 0.331950207,1.30124481 0.172614108,1.14190871 L0.0663900415,1.03568465 L1.54024896,0 L7.01078838,3.5186722 L6.97095436,3.61161826 C6.78506224,4.00995851 6.33360996,4.92614108 5.98838174,4.93941909 L5.96182573,4.93941909 Z M0.438174274,1.08879668 C1.06224066,1.68630705 4.3153527,4.71369295 5.94854772,4.71369295 L5.97510373,4.71369295 C6.09460581,4.70041494 6.42655602,4.20912863 6.69211618,3.62489627 L1.52697095,0.305394191 L0.438174274,1.08879668 Z" id="Shape" fill="#000000"></path>
                            </g>
                            <g id="XMLID_25_" transform="translate(1.195021, 3.585062)">
                                <path d="M1.593361,0.199170124 L7.39585062,3.77095436 C7.39585062,3.77095436 6.82489627,5.01908714 6.51950207,5.01908714 C4.6473029,5.05892116 0.292116183,1.10207469 0.292116183,1.10207469 L1.593361,0.199170124 Z" id="Shape" fill="#FFFFFF"></path>
                                <path d="M6.49294606,5.15186722 C4.58091286,5.15186722 0.398340249,1.36763485 0.225726141,1.19502075 L0.119502075,1.08879668 L1.593361,0.0531120332 L7.55518672,3.73112033 L7.5153527,3.82406639 C7.32946058,4.22240664 6.8780083,5.13858921 6.53278008,5.15186722 L6.49294606,5.15186722 Z M0.491286307,1.12863071 C1.18174274,1.73941909 4.83319502,4.91286307 6.49294606,4.91286307 L6.51950207,4.91286307 C6.63900415,4.89958506 6.97095436,4.40829876 7.23651452,3.82406639 L1.593361,0.345228216 L0.491286307,1.12863071 Z" id="Shape" fill="#000000"></path>
                            </g>
                            <g id="XMLID_24_" transform="translate(2.655602, 2.655602)">
                                <path d="M1.50041494,0.1593361 L7.30290456,3.73112033 C7.30290456,3.73112033 6.73195021,4.97925311 6.42655602,4.97925311 C4.55435685,5.01908714 0.199170124,1.06224066 0.199170124,1.06224066 L1.50041494,0.1593361 Z" id="Shape" fill="#FFFFFF"></path>
                                <path d="M6.41327801,5.09875519 C4.50124481,5.09875519 0.318672199,1.31452282 0.146058091,1.14190871 L0.0398340249,1.03568465 L1.51369295,0 L7.47551867,3.6780083 L7.43568465,3.77095436 C7.24979253,4.16929461 6.79834025,5.08547718 6.45311203,5.09875519 C6.42655602,5.09875519 6.42655602,5.09875519 6.41327801,5.09875519 Z M0.411618257,1.07551867 C1.10207469,1.68630705 4.75352697,4.85975104 6.41327801,4.85975104 L6.43983402,4.85975104 C6.5593361,4.84647303 6.89128631,4.35518672 7.15684647,3.77095436 L1.51369295,0.292116183 L0.411618257,1.07551867 Z" id="Shape" fill="#000000"></path>
                            </g>
                            <g id="XMLID_17_" transform="translate(3.319502, 1.991701)">
                                <path d="M1.63319502,0.239004149 L9.04232365,3.61161826 C9.04232365,3.61161826 8.57759336,4.6473029 8.24564315,4.68713693 C6.18755187,4.9659751 0.305394191,1.06224066 0.305394191,1.06224066 L1.63319502,0.239004149 Z" id="Shape" fill="#FFFFFF"></path>
                                <path d="M8.01991701,4.81991701 C5.77593361,4.81991701 0.478008299,1.31452282 0.239004149,1.15518672 L0.0796680498,1.04896266 L1.61991701,0.0929460581 L9.20165975,3.53195021 L9.14854772,3.63817427 C9.06887967,3.82406639 8.63070539,4.74024896 8.25892116,4.793361 C8.19253112,4.81991701 8.11286307,4.81991701 8.01991701,4.81991701 Z M0.531120332,1.06224066 C1.47385892,1.67302905 6.42655602,4.81991701 8.23236515,4.56763485 C8.39170124,4.54107884 8.68381743,4.10290456 8.89626556,3.66473029 L1.64647303,0.371784232 L0.531120332,1.06224066 Z" id="Shape" fill="#000000"></path>
                            </g>
                            <g id="XMLID_13_" transform="translate(4.647303, 1.062241)">
                                <path d="M0.557676349,0.212448133 C0.557676349,0.212448133 8.43153527,2.74854772 10.5161826,3.29294606 C10.9941909,3.41244813 9.98506224,5.01908714 9.65311203,5.08547718 C8.24564315,5.37759336 -0.106224066,0.969294606 0.225726141,1.18174274 L0.557676349,0.212448133 Z" id="Shape" fill="#FFFFFF"></path>
                                <path d="M9.50705394,5.21825726 C8.20580913,5.21825726 3.98340249,3.18672199 0.863070539,1.61991701 C0.62406639,1.50041494 0.424896266,1.39419087 0.305394191,1.34107884 L0.292116183,1.36763485 L0.0663900415,1.22157676 L0.119502075,1.1153527 C0.132780083,1.10207469 0.132780083,1.08879668 0.132780083,1.08879668 L0.478008299,0.0531120332 L0.584232365,0.0929460581 C0.663900415,0.119502075 8.47136929,2.64232365 10.5427386,3.17344398 C10.6091286,3.18672199 10.7684647,3.25311203 10.7551867,3.50539419 C10.7419087,3.98340249 10.0116183,5.1253112 9.66639004,5.20497925 C9.63983402,5.21825726 9.57344398,5.21825726 9.50705394,5.21825726 Z M0.385062241,1.12863071 C0.504564315,1.18174274 0.690456432,1.2746888 0.982572614,1.42074689 C2.85477178,2.36348548 8.56431535,5.20497925 9.63983402,4.97925311 C9.81244813,4.93941909 10.5294606,3.95684647 10.5427386,3.50539419 C10.5427386,3.42572614 10.5161826,3.41244813 10.5029046,3.41244813 C8.56431535,2.90788382 1.61991701,0.677178423 0.650622407,0.358506224 L0.385062241,1.12863071 Z" id="Shape" fill="#000000"></path>
                            </g>
                            <g id="XMLID_4_" transform="translate(0.132780, 0.000000)">
                                <path d="M0.717012448,5.24481328 C1.23485477,4.806639 1.93858921,3.91701245 2.15103734,2.29709544 C2.33692946,0.849792531 2.80165975,0.146058091 3.57178423,0.146058091 C4.28879668,0.146058091 5.21825726,0.730290456 6.04149378,1.24813278 C6.41327801,1.48713693 6.75850622,1.69958506 7.09045643,1.87219917 C6.38672199,1.85892116 5.1253112,1.7659751 5.1120332,1.7659751 C5.1120332,1.7659751 5.1120332,1.7659751 5.09875519,1.7659751 C5.07219917,1.7659751 5.03236515,1.77925311 5.01908714,1.80580913 C4.99253112,1.83236515 4.97925311,1.85892116 4.97925311,1.89875519 C5.00580913,2.33692946 4.97925311,2.85477178 4.92614108,2.93443983 C4.88630705,2.96099585 4.6473029,3.01410788 3.9966805,3.01410788 L3.85062241,3.01410788 L3.85062241,3.01410788 C3.81078838,3.01410788 3.77095436,3.02738589 3.75767635,3.06721992 C3.75767635,3.06721992 3.26639004,3.71784232 2.82821577,4.14273859 C2.23070539,4.72697095 1.32780083,5.07219917 0.717012448,5.24481328 Z" id="Shape" fill="#FFFFFF"></path>
                                <path d="M3.57178423,0.0398340249 L3.57178423,0.278838174 C4.26224066,0.278838174 5.16514523,0.849792531 5.97510373,1.36763485 C6.18755187,1.50041494 6.4,1.63319502 6.59917012,1.7526971 C5.9219917,1.72614108 5.13858921,1.65975104 5.1253112,1.65975104 L5.1120332,1.65975104 C5.04564315,1.65975104 4.99253112,1.68630705 4.93941909,1.72614108 C4.88630705,1.77925311 4.85975104,1.84564315 4.87302905,1.9120332 C4.88630705,2.29709544 4.87302905,2.70871369 4.84647303,2.85477178 C4.75352697,2.8813278 4.50124481,2.90788382 4.00995851,2.90788382 L3.87717842,2.90788382 L3.87717842,2.90788382 C3.79751037,2.90788382 3.73112033,2.94771784 3.69128631,3.00082988 C3.69128631,3.00082988 3.21327801,3.65145228 2.77510373,4.06307054 C2.33692946,4.4879668 1.72614108,4.78008299 1.20829876,4.97925311 C1.67302905,4.46141079 2.15103734,3.61161826 2.31037344,2.32365145 C2.5626556,0.278838174 3.34605809,0.278838174 3.61161826,0.278838174 L3.57178423,0.0398340249 L3.57178423,0.0398340249 Z M3.57178423,0.0398340249 C2.82821577,0.0398340249 2.2439834,0.597510373 2.03153527,2.29709544 C1.71286307,4.87302905 0.0663900415,5.53692946 0.0663900415,5.53692946 C0.0663900415,5.53692946 1.88547718,5.21825726 2.89460581,4.23568465 C3.34605809,3.79751037 3.8373444,3.14688797 3.8373444,3.14688797 L3.98340249,3.14688797 C4.26224066,3.14688797 4.87302905,3.13360996 4.99253112,3.0406639 C5.13858921,2.92116183 5.08547718,1.9120332 5.08547718,1.9120332 C5.08547718,1.9120332 6.62572614,2.01825726 7.27634855,2.01825726 C7.50207469,2.01825726 7.62157676,2.00497925 7.5153527,1.96514523 C6.42655602,1.55352697 4.78008299,0.0398340249 3.57178423,0.0398340249 L3.57178423,0.0398340249 Z" id="Shape" fill="#000000"></path>
                            </g>
                        </g>
                        <g id="XMLID_48_" transform="translate(14.738589, 11.153527)" fill="#000000">
                            <polygon id="Shape" points="1.7659751 16.6373444 2.37676349 0.146058091 0.199170124 0.146058091 0.902904564 16.6240664"></polygon>
                            <path d="M1.84564315,16.7170124 L0.836514523,16.6904564 L0.119502075,0.0531120332 L2.46970954,0.0531120332 L2.46970954,0.132780083 L1.84564315,16.7170124 Z M0.982572614,16.5443983 L1.68630705,16.5576763 L2.29709544,0.225726141 L0.278838174,0.225726141 L0.982572614,16.5443983 Z" id="Shape"></path>
                        </g>
                        <g id="XMLID_47_" transform="translate(15.269710, 11.419087)" fill="#FFFFFF">
                            <polygon id="Shape" points="0.0132780083 0.0398340249 0.212448133 8.93609959 0.331950207 9.01576763 0.331950207 0.0398340249"></polygon>
                        </g>
                        <g id="XMLID_6_" transform="translate(14.340249, 5.576763)" fill="#000000">
                            <path d="M3.26639004,2.23070539 C3.23983402,1.81908714 2.93443983,1.30124481 2.29709544,1.00912863 C2.05809129,0.889626556 1.89875519,0.770124481 1.9120332,0.54439834 C1.9120332,0.265560166 2.09792531,0.0663900415 2.09792531,0.0663900415 C2.09792531,0.0663900415 0.863070539,0.0796680498 0.956016598,1.19502075 C0.969294606,1.42074689 1.15518672,1.77925311 0.836514523,1.80580913 C0.584232365,1.83236515 0.597510373,1.48713693 0.610788382,1.34107884 C0.62406639,1.06224066 -0.0265560166,1.79253112 0.146058091,2.85477178 C0.398340249,4.4879668 3.43900415,4.4879668 3.26639004,2.23070539 Z" id="Shape"></path>
                        </g>
                        <g id="XMLID_3_" transform="translate(14.605809, 5.842324)" fill="#FFFFFF">
                            <path d="M2.77510373,2.29709544 C2.80165975,1.84564315 2.68215768,1.47385892 2.36348548,1.20829876 C2.11120332,0.995850622 2.00497925,0.982572614 1.79253112,0.849792531 C1.65975104,0.770124481 1.51369295,0.650622407 1.46058091,0.438174274 C1.42074689,0.239004149 1.47385892,0.0929460581 1.47385892,0.0929460581 C1.47385892,0.0929460581 1.19502075,0.119502075 0.995850622,0.424896266 C0.876348548,0.610788382 0.863070539,0.770124481 0.956016598,1.2879668 C1.06224066,1.88547718 0.331950207,1.93858921 0.225726141,1.58008299 C0.1593361,1.39419087 -0.0929460581,2.32365145 0.172614108,2.85477178 C0.424896266,3.33278008 0.956016598,3.54522822 1.50041494,3.5186722 C2.05809129,3.47883817 2.73526971,3.06721992 2.77510373,2.29709544 Z" id="Shape"></path>
                        </g>
                        <g id="XMLID_1_" transform="translate(15.402490, 7.834025)" fill="#000000">
                            <path d="M0.0265560166,0.969294606 C0.0796680498,0.610788382 0.411618257,0.597510373 0.584232365,0.371784232 C0.677178423,0.239004149 0.663900415,0 0.663900415,0 C0.663900415,0 0.982572614,0.185892116 0.796680498,0.610788382 C0.743568465,0.743568465 0.730290456,0.889626556 0.916182573,0.876348548 C1.02240664,0.876348548 1.10207469,0.770124481 1.1153527,0.717012448 C1.12863071,0.637344398 1.2879668,0.902904564 1.22157676,1.22157676 C1.1153527,1.7526971 -0.106224066,1.79253112 0.0265560166,0.969294606 Z" id="Shape"></path>
                        </g>
                        <ellipse id="Oval" fill="#000000" cx="15.986722" cy="10.3302905" rx="1.1153527" ry="0.956016598"></ellipse>
                        <path d="M15.3095436,10.3568465 C15.3095436,10.0381743 15.5219917,9.69294606 15.8008299,9.65311203 C15.7742739,9.65311203 15.7477178,9.63983402 15.7211618,9.63983402 C15.4024896,9.63983402 15.1103734,9.94522822 15.0970954,10.3568465 C15.0970954,10.7020747 15.4024896,11.0871369 15.7344398,11.0871369 C15.7609959,11.0871369 15.7875519,11.0871369 15.8141079,11.0738589 C15.5219917,11.0207469 15.3095436,10.6755187 15.3095436,10.3568465 Z" id="Shape" fill="#FFFFFF"></path>
                        <g id="XMLID_40_" transform="translate(16.199170, 15.933610)" fill="#FFFFFF">
                            <path d="M0.650622407,4.75352697 C3.05394191,4.4879668 4.14273859,3.18672199 4.04979253,1.7659751 C4.02323651,1.36763485 3.75767635,0.942738589 3.3593361,0.597510373 C2.65560166,0.0398340249 1.93858921,0.0398340249 1.7526971,0.0398340249 C0.823236515,0.0398340249 0.0663900415,0.411618257 0.0663900415,0.876348548 C0.0663900415,1.34107884 0.823236515,1.71286307 1.7526971,1.71286307 C2.07136929,1.71286307 2.37676349,1.67302905 2.62904564,1.593361 C2.85477178,1.56680498 2.89460581,1.83236515 2.86804979,1.93858921 C2.85477178,2.68215768 1.79253112,3.17344398 0.677178423,3.58506224 L0.650622407,4.75352697 Z" id="Shape"></path>
                        </g>
                        <g id="XMLID_12_" transform="translate(15.800830, 15.800830)" fill="#000000">
                            <path d="M0.212448133,5.48381743 C0.1593361,5.48381743 0.119502075,5.45726141 0.106224066,5.40414938 C0.0796680498,5.33775934 0.106224066,5.27136929 0.172614108,5.24481328 C0.185892116,5.24481328 0.212448133,5.23153527 0.225726141,5.21825726 C0.265560166,5.19170124 0.292116183,5.17842324 0.331950207,5.16514523 C0.610788382,5.07219917 0.743568465,5.03236515 0.876348548,4.99253112 C1.03568465,4.9526971 1.20829876,4.89958506 1.65975104,4.74024896 C3.69128631,4.02323651 4.4746888,3.21327801 4.35518672,1.9120332 C4.3153527,1.42074689 4.08962656,1.15518672 3.70456432,0.823236515 C3.26639004,0.478008299 2.76182573,0.305394191 2.19087137,0.305394191 L2.19087137,0.305394191 C1.24813278,0.305394191 0.62406639,0.677178423 0.62406639,1.02240664 C0.62406639,1.15518672 0.717012448,1.2746888 0.78340249,1.34107884 C1.06224066,1.606639 1.593361,1.7659751 2.17759336,1.73941909 C2.50954357,1.72614108 2.69543568,1.71286307 3.02738589,1.61991701 L3.08049793,1.61991701 C3.31950207,1.64647303 3.46556017,1.83236515 3.47883817,2.0846473 C3.50539419,2.68215768 2.69543568,3.27966805 1.04896266,3.85062241 C0.982572614,3.87717842 0.916182573,3.8373444 0.902904564,3.77095436 C0.876348548,3.70456432 0.916182573,3.63817427 0.982572614,3.62489627 C2.45643154,3.10705394 3.27966805,2.54937759 3.25311203,2.09792531 C3.23983402,1.9120332 3.13360996,1.87219917 3.08049793,1.85892116 C2.74854772,1.95186722 2.53609959,1.96514523 2.20414938,1.97842324 C1.55352697,2.00497925 0.956016598,1.81908714 0.62406639,1.51369295 C0.46473029,1.36763485 0.385062241,1.19502075 0.385062241,1.02240664 C0.385062241,0.491286307 1.18174274,0.0663900415 2.19087137,0.0663900415 L2.19087137,0.0663900415 C2.81493776,0.0663900415 3.38589212,0.265560166 3.86390041,0.637344398 C4.28879668,1.00912863 4.54107884,1.32780083 4.59419087,1.89875519 C4.72697095,3.30622407 3.86390041,4.22240664 1.73941909,4.9659751 C1.2746888,5.1253112 1.10207469,5.17842324 0.942738589,5.21825726 C0.809958506,5.25809129 0.690456432,5.2846473 0.411618257,5.39087137 C0.398340249,5.39087137 0.371784232,5.41742739 0.345228216,5.43070539 C0.318672199,5.4439834 0.278838174,5.47053942 0.252282158,5.48381743 C0.239004149,5.48381743 0.225726141,5.48381743 0.212448133,5.48381743 Z" id="Shape"></path>
                        </g>
                        <g id="XMLID_10_" transform="translate(16.995851, 15.464730)" fill="#000000">
                            <ellipse id="Oval" transform="translate(0.637802, 1.552263) rotate(-11.636935) translate(-0.637802, -1.552263) " cx="0.416627196" cy="1.18341076" rx="0.278825243" ry="0.131147541"></ellipse>
                        </g>
                        <g id="XMLID_35_" transform="translate(11.817427, 15.933610)" fill="#FFFFFF">
                            <path d="M7.36929461,6.43983402 C7.36929461,5.35103734 6.70539419,4.74024896 4.68713693,4.02323651 C4.27551867,3.87717842 4.4879668,3.98340249 3.49211618,3.61161826 C2.37676349,3.18672199 1.20829876,2.70871369 1.19502075,1.95186722 C1.16846473,1.83236515 1.22157676,1.58008299 1.4340249,1.606639 C1.68630705,1.68630705 1.99170124,1.72614108 2.31037344,1.72614108 C3.23983402,1.72614108 3.9966805,1.35435685 3.9966805,0.889626556 C3.9966805,0.424896266 3.23983402,0.0531120332 2.31037344,0.0531120332 C2.12448133,0.0531120332 1.40746888,0.0531120332 0.70373444,0.610788382 C0.305394191,0.956016598 0.0398340249,1.38091286 0.0132780083,1.77925311 C-0.0796680498,3.2 1.1153527,4.16929461 2.98755187,4.81991701 C3.77095436,5.08547718 4.28879668,5.23153527 5.03236515,5.55020747 C5.62987552,5.81576763 5.89543568,5.90871369 5.96182573,6.46639004 C6.05477178,7.01078838 5.66970954,7.40912863 4.91286307,7.74107884 L4.87302905,9.04232365 C6.53278008,8.67053942 7.36929461,7.80746888 7.36929461,6.43983402 Z" id="Shape"></path>
                        </g>
                        <path d="M14.8713693,26.2373444 C14.8846473,25.7858921 15.2033195,25.4008299 15.4688797,25.2813278 L15.4157676,24.006639 C14.7651452,23.993361 14.0082988,24.6838174 13.6763485,25.2813278 C13.4639004,25.66639 13.4373444,26.9809129 14.0215768,27.4721992 C14.6854772,27.6049793 15.0572614,27.6049793 15.6149378,27.6315353 C15.6282158,27.5784232 15.5618257,27.4190871 15.5485477,27.4058091 C15.2564315,27.2863071 14.8580913,26.7020747 14.8713693,26.2373444 Z" id="Shape" fill="#FFFFFF"></path>
                        <g id="XMLID_8_" transform="translate(11.684647, 15.800830)" fill="#000000">
                            <path d="M4.66058091,9.33443983 C4.59419087,9.33443983 4.54107884,9.2813278 4.54107884,9.22821577 C4.54107884,9.16182573 4.58091286,9.10871369 4.6473029,9.09543568 C6.2406639,8.9626556 7.5153527,7.80746888 7.42240664,6.57261411 C7.3560166,5.59004149 6.54605809,4.89958506 4.75352697,4.26224066 C4.56763485,4.19585062 4.51452282,4.18257261 4.42157676,4.14273859 C4.3153527,4.10290456 4.12946058,4.03651452 3.55850622,3.8373444 C1.9120332,3.26639004 1.08879668,2.66887967 1.12863071,2.07136929 C1.14190871,1.80580913 1.2879668,1.63319502 1.52697095,1.606639 L1.58008299,1.606639 C1.9120332,1.69958506 2.09792531,1.71286307 2.42987552,1.72614108 C3.01410788,1.7526971 3.55850622,1.593361 3.82406639,1.32780083 C3.90373444,1.26141079 3.98340249,1.14190871 3.98340249,1.00912863 C3.98340249,0.663900415 3.3593361,0.292116183 2.41659751,0.292116183 L2.41659751,0.292116183 C1.84564315,0.292116183 1.32780083,0.46473029 0.889626556,0.823236515 C0.504564315,1.15518672 0.292116183,1.42074689 0.252282158,1.9120332 C0.132780083,3.2 0.916182573,4.02323651 2.94771784,4.74024896 C3.39917012,4.89958506 3.77095436,5.01908714 4.10290456,5.1120332 C4.38174274,5.20497925 4.66058091,5.2846473 4.93941909,5.39087137 C5.49709544,5.59004149 6.22738589,5.93526971 6.2406639,6.73195021 C6.22738589,7.0373444 6.0813278,7.30290456 5.82904564,7.5153527 C5.37759336,7.90041494 4.62074689,8.04647303 4.14273859,7.993361 C4.07634855,7.98008299 4.02323651,7.92697095 4.03651452,7.86058091 C4.04979253,7.79419087 4.10290456,7.74107884 4.16929461,7.75435685 C4.54107884,7.79419087 5.24481328,7.6879668 5.66970954,7.32946058 C5.86887967,7.15684647 5.97510373,6.95767635 5.98838174,6.73195021 C5.97510373,6.2406639 5.61659751,5.89543568 4.84647303,5.61659751 C4.56763485,5.52365145 4.30207469,5.43070539 4.02323651,5.35103734 C3.69128631,5.24481328 3.31950207,5.1253112 2.86804979,4.9659751 C0.743568465,4.22240664 -0.106224066,3.29294606 0.0132780083,1.89875519 C0.0663900415,1.32780083 0.318672199,1.00912863 0.743568465,0.650622407 C1.23485477,0.265560166 1.79253112,0.0663900415 2.41659751,0.0663900415 L2.41659751,0.0663900415 C3.43900415,0.0663900415 4.22240664,0.491286307 4.22240664,1.02240664 C4.22240664,1.19502075 4.14273859,1.36763485 3.98340249,1.51369295 C3.66473029,1.81908714 3.05394191,2.00497925 2.4033195,1.97842324 C2.07136929,1.96514523 1.85892116,1.95186722 1.52697095,1.85892116 C1.47385892,1.87219917 1.36763485,1.9120332 1.35435685,2.09792531 C1.32780083,2.5626556 2.16431535,3.12033195 3.62489627,3.62489627 C4.19585062,3.82406639 4.38174274,3.89045643 4.4879668,3.93029046 C4.58091286,3.95684647 4.6340249,3.98340249 4.81991701,4.04979253 C6.7186722,4.72697095 7.56846473,5.48381743 7.64813278,6.57261411 C7.76763485,7.94024896 6.42655602,9.18838174 4.66058091,9.33443983 L4.66058091,9.33443983 Z" id="Shape"></path>
                        </g>
                        <g id="XMLID_2_" transform="translate(14.340249, 14.940140)" fill="#000000">
                            <ellipse id="Oval" transform="translate(0.703889, 1.421019) rotate(-78.363065) translate(-0.703889, -1.421019) " cx="0.335036797" cy="1.19984397" rx="0.131147541" ry="0.278825243"></ellipse>
                        </g>
                        <path d="M15.7211618,27.7377593 C15.3095436,27.5917012 14.8580913,27.1004149 14.8315353,26.3701245 C14.8049793,25.9186722 15.0307054,25.1087137 15.973444,24.9493776 L16.013278,25.1883817 C15.0439834,25.3344398 15.0572614,26.2506224 15.0705394,26.3568465 C15.0970954,26.9410788 15.4556017,27.3792531 15.8008299,27.5120332 L15.7211618,27.7377593 Z" id="Shape" fill="#000000"></path>
                        <path d="M14.2605809,27.8041494 C14.2473029,27.8041494 14.2340249,27.8041494 14.2074689,27.7908714 C13.3178423,27.4058091 13.3311203,26.0248963 13.5966805,25.3609959 C13.8356846,24.7236515 14.326971,23.966805 15.9070539,23.7012448 C15.973444,23.6879668 16.039834,23.7278008 16.039834,23.7941909 C16.053112,23.8605809 16.013278,23.926971 15.946888,23.926971 C14.4863071,24.1792531 14.0481328,24.8298755 13.8224066,25.4406639 C13.5966805,26.0116183 13.5834025,27.246473 14.3136929,27.5651452 C14.380083,27.5917012 14.406639,27.6580913 14.380083,27.7244813 C14.353527,27.7775934 14.3136929,27.8041494 14.2605809,27.8041494 Z" id="Shape" fill="#000000"></path>
                        <g id="XMLID_32_" transform="translate(12.879668, 20.580913)" fill="#FFFFFF">
                            <path d="M2.39004149,0.424896266 C2.39004149,0.517842324 2.4033195,0.690456432 2.4033195,0.690456432 C2.4033195,0.78340249 2.39004149,0.863070539 2.35020747,0.889626556 C1.83236515,1.2879668 1.48713693,1.24813278 1.42074689,1.80580913 C1.32780083,2.35020747 1.77925311,2.7219917 2.53609959,3.05394191 L3.91701245,3.42572614 L3.73112033,4.6473029 L2.58921162,4.38174274 C0.942738589,4.02323651 0.0132780083,3.17344398 0.0132780083,1.79253112 C0.0132780083,1.00912863 0.398340249,0.557676349 1.32780083,0.0531120332 L1.83236515,0.239004149 L2.39004149,0.424896266 Z" id="Shape"></path>
                        </g>
                        <path d="M17.1419087,26.2373444 C17.1419087,25.7858921 16.8896266,25.4008299 16.6240664,25.2813278 L16.6771784,24.006639 C17.3278008,23.993361 18.0846473,24.6838174 18.4165975,25.2813278 C18.6290456,25.66639 18.6954357,26.9676349 18.0979253,27.4589212 C17.6863071,27.5253112 17.1950207,27.6049793 16.4647303,27.6315353 C16.4514523,27.5784232 16.5045643,27.4589212 16.5178423,27.4456432 C17.1286307,27.246473 17.1419087,26.6622407 17.1419087,26.2373444 Z" id="Shape" fill="#FFFFFF"></path>
                        <g id="XMLID_14_" transform="translate(14.074689, 21.112033)" fill="#000000">
                            <path d="M3.85062241,6.69211618 C3.81078838,6.69211618 3.77095436,6.66556017 3.74439834,6.62572614 C3.71784232,6.57261411 3.73112033,6.49294606 3.79751037,6.46639004 C4.43485477,6.12116183 4.4879668,4.9526971 4.24896266,4.32863071 C4.06307054,3.85062241 3.78423237,3.34605809 2.49626556,2.90788382 C2.42987552,2.8813278 2.37676349,2.86804979 2.31037344,2.85477178 C2.2439834,2.84149378 2.16431535,2.81493776 2.03153527,2.77510373 C1.9253112,2.74854772 1.81908714,2.7219917 1.72614108,2.69543568 C1.606639,2.66887967 1.51369295,2.64232365 1.4473029,2.62904564 C1.1153527,2.5626556 0.119502075,2.33692946 0.106224066,1.42074689 C0.106224066,0.796680498 0.491286307,0.358506224 1.26141079,0.119502075 C1.32780083,0.106224066 1.39419087,0.132780083 1.40746888,0.199170124 C1.42074689,0.265560166 1.39419087,0.331950207 1.32780083,0.345228216 C0.663900415,0.557676349 0.331950207,0.902904564 0.331950207,1.40746888 C0.345228216,1.89875519 0.70373444,2.20414938 1.48713693,2.37676349 C1.55352697,2.39004149 1.65975104,2.41659751 1.77925311,2.44315353 C1.87219917,2.46970954 1.97842324,2.49626556 2.09792531,2.52282158 C2.23070539,2.5626556 2.31037344,2.57593361 2.37676349,2.60248963 C2.45643154,2.61576763 2.49626556,2.62904564 2.57593361,2.65560166 C3.95684647,3.12033195 4.27551867,3.70456432 4.4746888,4.20912863 C4.75352697,4.92614108 4.67385892,6.22738589 3.91701245,6.63900415 C3.89045643,6.67883817 3.87717842,6.69211618 3.85062241,6.69211618 Z" id="Shape"></path>
                        </g>
                        <g id="XMLID_11_" transform="translate(12.614108, 20.315353)" fill="#000000">
                            <path d="M3.81078838,7.39585062 L3.73112033,7.17012448 C4.06307054,7.05062241 4.39502075,6.65228216 4.43485477,6.04149378 C4.44813278,5.72282158 4.28879668,5.13858921 3.61161826,4.9659751 C3.59834025,4.9659751 3.37261411,4.89958506 3.05394191,4.83319502 C2.81493776,4.793361 2.7219917,4.76680498 2.64232365,4.75352697 L2.5626556,4.74024896 C0.982572614,4.40829876 0.0132780083,3.34605809 0.106224066,2.04481328 C0.1593361,1.32780083 0.504564315,0.730290456 1.10207469,0.345228216 L1.1153527,0.331950207 C1.22157676,0.265560166 1.30124481,0.212448133 1.61991701,0.0929460581 L1.69958506,0.318672199 C1.40746888,0.424896266 1.32780083,0.478008299 1.24813278,0.54439834 L1.23485477,0.557676349 C0.531120332,1.00912863 0.385062241,1.69958506 0.358506224,2.07136929 C0.278838174,3.25311203 1.15518672,4.20912863 2.61576763,4.51452282 L2.69543568,4.52780083 C2.76182573,4.54107884 2.85477178,4.56763485 3.09377593,4.60746888 C3.42572614,4.67385892 3.66473029,4.74024896 3.66473029,4.74024896 C4.38174274,4.92614108 4.67385892,5.55020747 4.66058091,6.05477178 C4.6340249,6.77178423 4.20912863,7.24979253 3.81078838,7.39585062 Z" id="Shape"></path>
                        </g>
                        <polygon id="Shape" fill="#FFFFFF" points="15.4688797 21.1651452 15.7311748 21.2182573 15.7311748 23.4091286 15.6000272 23.3958506"></polygon>
                    </g>
                </g>
                <rect id="Rectangle-15" fill="#D8D8D8" x="37" y="6" width="1" height="20"></rect>
                <g id="nyc-sani-logo-white" transform="translate(43.000000, 3.000000)" fill-rule="nonzero" fill="#FFFFFF">
                    <g id="Layer_1">
                        <path d="M3.41099262,16.3030303 C3.6538146,16.6666667 3.89663659,16.9090909 4.26086957,17.1515152 C4.62510254,17.3333333 4.98933552,17.5151515 5.47497949,17.5757576 C5.89991797,17.6969697 6.38556194,17.6969697 6.87120591,17.6969697 C7.23543888,17.6969697 7.59967186,17.6969697 8.02461034,17.6363636 C8.44954881,17.5757576 8.81378179,17.4545455 9.11730927,17.3333333 C9.48154225,17.2121212 9.72436423,16.969697 9.96718622,16.6666667 C10.2100082,16.3636364 10.2707137,16 10.2707137,15.5757576 C10.2707137,14.969697 10.0278917,14.5454545 9.60295324,14.2424242 C9.11730927,13.9393939 8.5709598,13.6969697 7.90319934,13.5151515 C7.23543888,13.3333333 6.50697293,13.1515152 5.65709598,12.969697 C4.86792453,12.7878788 4.13945857,12.6060606 3.41099262,12.3030303 C2.74323216,12 2.13617719,11.6363636 1.71123872,11.0909091 C1.22559475,10.6060606 1.04347826,9.87878788 1.04347826,8.96969697 C1.04347826,8.24242424 1.22559475,7.63636364 1.52912223,7.15151515 C1.83264971,6.66666667 2.25758819,6.24242424 2.74323216,5.93939394 C3.22887613,5.63636364 3.83593109,5.39393939 4.44298605,5.21212121 C5.05004102,5.03030303 5.71780148,4.96969697 6.32485644,4.96969697 C7.11402789,4.96969697 7.84249385,5.03030303 8.51025431,5.15151515 C9.17801477,5.27272727 9.78506973,5.51515152 10.2707137,5.87878788 C10.8170632,6.24242424 11.1812961,6.66666667 11.4848236,7.21212121 C11.7883511,7.75757576 11.9704676,8.48484848 12.0311731,9.33333333 L9.72436423,9.33333333 C9.66365874,8.90909091 9.54224774,8.48484848 9.36013126,8.18181818 C9.17801477,7.87878788 8.87448728,7.63636364 8.5709598,7.45454545 C8.26743232,7.27272727 7.90319934,7.15151515 7.53896637,7.03030303 C7.17473339,6.96969697 6.81050041,6.90909091 6.38556194,6.90909091 C6.02132896,6.90909091 5.71780148,6.90909091 5.3535685,6.96969697 C4.98933552,7.03030303 4.68580804,7.09090909 4.38228056,7.27272727 C4.07875308,7.39393939 3.83593109,7.57575758 3.6538146,7.81818182 C3.47169811,8.06060606 3.35028712,8.36363636 3.35028712,8.72727273 C3.35028712,9.15151515 3.47169811,9.45454545 3.77522559,9.6969697 C4.07875308,9.93939394 4.44298605,10.1818182 4.86792453,10.3636364 C5.292863,10.5454545 5.77850697,10.6666667 6.32485644,10.7878788 C6.87120591,10.9090909 7.41755537,11.030303 7.96390484,11.1515152 C8.5709598,11.2727273 9.11730927,11.4545455 9.66365874,11.6363636 C10.2100082,11.8181818 10.6956522,12.0606061 11.1205906,12.3636364 C11.5455291,12.6666667 11.9097621,13.030303 12.1525841,13.5151515 C12.3954061,14 12.5775226,14.5454545 12.5775226,15.2121212 C12.5775226,16.0606061 12.3954061,16.7878788 12.0311731,17.3333333 C11.6669401,17.8787879 11.2420016,18.3636364 10.6349467,18.6666667 C10.0885972,19.030303 9.42083675,19.2727273 8.6923708,19.3939394 C7.96390484,19.5151515 7.23543888,19.5757576 6.56767842,19.5757576 C5.77850697,19.5757576 5.05004102,19.5151515 4.32157506,19.3333333 C3.59310911,19.1515152 2.98605414,18.9090909 2.43970468,18.5454545 C1.89335521,18.1818182 1.46841674,17.6969697 1.10418376,17.0909091 C0.800656276,16.4848485 0.618539787,15.7575758 0.55783429,14.8484848 L2.86464315,14.8484848 C3.10746514,15.5151515 3.16817063,15.9393939 3.41099262,16.3030303 Z" id="Shape"></path>
                        <path d="M27.8146021,19.3939394 C27.3896637,19.6363636 26.8433142,19.7575758 26.1755537,19.7575758 C25.5684988,19.7575758 25.0828548,19.5757576 24.7186218,19.2727273 C24.3543888,18.969697 24.1722724,18.3636364 24.1722724,17.6363636 C23.5045119,18.4242424 22.7760459,18.969697 21.926169,19.2727273 C21.076292,19.6363636 20.1657096,19.7575758 19.1944217,19.7575758 C18.5266612,19.7575758 17.9803117,19.6969697 17.3732568,19.5151515 C16.8269073,19.3939394 16.2805578,19.1515152 15.8556194,18.8484848 C15.4306809,18.5454545 15.1271534,18.1212121 14.8843314,17.6363636 C14.6415094,17.1515152 14.5200984,16.5454545 14.5200984,15.8181818 C14.5200984,15.030303 14.6415094,14.3636364 14.9450369,13.8787879 C15.2485644,13.3939394 15.5520919,12.969697 16.0377358,12.6666667 C16.4626743,12.3636364 17.0090238,12.1212121 17.5553733,11.9393939 C18.1017227,11.7575758 18.7087777,11.6363636 19.3158326,11.5151515 C19.9228876,11.3939394 20.5299426,11.2727273 21.1369975,11.2121212 C21.683347,11.1515152 22.2296965,11.030303 22.6546349,10.9090909 C23.0795734,10.7878788 23.4438064,10.6060606 23.6866284,10.3636364 C23.9294504,10.1212121 24.0508614,9.81818182 24.0508614,9.39393939 C24.0508614,8.90909091 23.9294504,8.48484848 23.7473339,8.18181818 C23.5652174,7.87878788 23.3223954,7.63636364 23.0188679,7.45454545 C22.7153404,7.27272727 22.3511075,7.15151515 21.9868745,7.15151515 C21.6226415,7.09090909 21.2584085,7.09090909 20.8941756,7.09090909 C19.9228876,7.09090909 19.0730107,7.27272727 18.4052502,7.63636364 C17.7374897,8 17.3732568,8.72727273 17.3125513,9.75757576 L15.0057424,9.75757576 C15.0664479,8.90909091 15.2485644,8.12121212 15.5520919,7.57575758 C15.8556194,6.96969697 16.3412633,6.48484848 16.8876128,6.12121212 C17.4339623,5.75757576 18.0410172,5.45454545 18.7694832,5.33333333 C19.4979491,5.21212121 20.2264151,5.09090909 21.0155865,5.09090909 C21.6226415,5.09090909 22.290402,5.15151515 22.8974569,5.21212121 C23.5045119,5.27272727 24.1115669,5.51515152 24.5972108,5.75757576 C25.0828548,6.06060606 25.5077933,6.42424242 25.8113208,6.96969697 C26.1148482,7.45454545 26.2969647,8.12121212 26.2969647,8.96969697 L26.2969647,16.1818182 C26.2969647,16.7272727 26.3576702,17.1515152 26.4183757,17.3939394 C26.4790812,17.6363636 26.7219032,17.7575758 27.0861362,17.7575758 C27.2682527,17.7575758 27.5110747,17.6969697 27.8146021,17.6363636 L27.8146021,19.3939394 Z M24.0508614,12.1818182 C23.7473339,12.4242424 23.3831009,12.5454545 22.8974569,12.6666667 C22.411813,12.7878788 21.926169,12.8484848 21.3798195,12.9090909 C20.8334701,12.969697 20.3478261,13.030303 19.8014766,13.1515152 C19.2551272,13.2121212 18.8301887,13.3939394 18.4052502,13.5151515 C17.9803117,13.6969697 17.6160788,13.9393939 17.3732568,14.3030303 C17.1304348,14.6666667 16.9483183,15.0909091 16.9483183,15.6969697 C16.9483183,16.0606061 17.0090238,16.4242424 17.1911403,16.6666667 C17.3732568,16.9090909 17.5553733,17.1515152 17.7981952,17.3333333 C18.0410172,17.5151515 18.3445447,17.6363636 18.6480722,17.6969697 C18.9515997,17.7575758 19.3158326,17.8181818 19.6800656,17.8181818 C20.4692371,17.8181818 21.076292,17.6969697 21.6226415,17.5151515 C22.168991,17.3333333 22.5939295,17.030303 22.9581624,16.7272727 C23.3223954,16.4242424 23.5652174,16.0606061 23.7473339,15.6969697 C23.9294504,15.3333333 23.9901559,14.969697 23.9901559,14.6666667 L23.9901559,12.1818182 L24.0508614,12.1818182 Z" id="Shape"></path>
                        <path d="M32.1246924,5.39393939 L32.1246924,7.63636364 L32.1853979,7.63636364 C33.1566858,5.93939394 34.6743232,5.09090909 36.7990156,5.09090909 C37.709598,5.09090909 38.4987695,5.21212121 39.1058244,5.45454545 C39.7128794,5.6969697 40.1985234,6.06060606 40.6234619,6.54545455 C40.9876948,7.03030303 41.2912223,7.51515152 41.4126333,8.18181818 C41.5947498,8.78787879 41.6554553,9.51515152 41.6554553,10.2424242 L41.6554553,19.5151515 L39.3486464,19.5151515 L39.3486464,9.93939394 C39.3486464,9.09090909 39.1058244,8.36363636 38.559475,7.87878788 C38.073831,7.39393939 37.3453651,7.09090909 36.4347826,7.09090909 C35.7063167,7.09090909 35.0992617,7.21212121 34.6136177,7.39393939 C34.0672683,7.63636364 33.6423298,7.93939394 33.3388023,8.3030303 C32.9745693,8.72727273 32.7317473,9.15151515 32.5496308,9.6969697 C32.3675144,10.2424242 32.3068089,10.8484848 32.3068089,11.4545455 L32.3068089,19.3939394 L30,19.3939394 L30,5.39393939 L32.1246924,5.39393939 Z" id="Shape"></path>
                        <path d="M45.2977851,2.84848485 L45.2977851,0 L47.6045939,0 L47.6045939,2.84848485 L45.2977851,2.84848485 Z M47.6045939,5.39393939 L47.6045939,19.5151515 L45.2977851,19.5151515 L45.2977851,5.39393939 L47.6045939,5.39393939 Z" id="Shape"></path>
                        <path d="M57.2567678,5.39393939 L57.2567678,7.45454545 L54.464315,7.45454545 L54.464315,16.1818182 C54.464315,16.4848485 54.464315,16.6666667 54.5250205,16.8484848 C54.585726,17.030303 54.6464315,17.1515152 54.7678425,17.2121212 C54.8892535,17.3333333 55.07137,17.3333333 55.314192,17.3939394 C55.5570139,17.4545455 55.8605414,17.4545455 56.2247744,17.4545455 L57.3174733,17.4545455 L57.3174733,19.5151515 L55.5570139,19.5151515 C54.949959,19.5151515 54.464315,19.4545455 54.0393765,19.3939394 C53.6144381,19.3333333 53.2502051,19.1515152 53.0073831,18.969697 C52.7645611,18.7272727 52.5217391,18.4242424 52.4003281,18.0606061 C52.2789171,17.6969697 52.2182116,17.1515152 52.2182116,16.4848485 L52.2182116,7.39393939 L49.7899918,7.39393939 L49.7899918,5.39393939 L52.2182116,5.39393939 L52.2182116,1.15151515 L54.5250205,1.15151515 L54.5250205,5.39393939 L57.2567678,5.39393939 Z" id="Shape"></path>
                        <path d="M72.3117309,19.3939394 C71.8867925,19.6363636 71.340443,19.7575758 70.6726825,19.7575758 C70.0656276,19.7575758 69.5799836,19.5757576 69.2157506,19.2727273 C68.8515176,18.969697 68.6694011,18.3636364 68.6694011,17.6363636 C68.0016407,18.4242424 67.2731747,18.969697 66.4232978,19.2727273 C65.5734208,19.6363636 64.6628384,19.7575758 63.6915505,19.7575758 C63.02379,19.7575758 62.4774405,19.6969697 61.8703856,19.5151515 C61.3240361,19.3939394 60.7776866,19.1515152 60.3527482,18.8484848 C59.9278097,18.5454545 59.6242822,18.1212121 59.3814602,17.6363636 C59.1386382,17.1515152 59.0172272,16.5454545 59.0172272,15.8181818 C59.0172272,15.030303 59.1386382,14.3636364 59.4421657,13.8787879 C59.7456932,13.3939394 60.0492207,12.969697 60.5348646,12.6666667 C60.9598031,12.3636364 61.5061526,12.1212121 62.0525021,11.9393939 C62.5988515,11.7575758 63.2059065,11.6363636 63.8129614,11.5151515 C64.4200164,11.3939394 65.0270714,11.2727273 65.6341263,11.2121212 C66.1804758,11.1515152 66.7268253,11.030303 67.1517637,10.9090909 C67.5767022,10.7878788 67.9409352,10.6060606 68.1837572,10.3636364 C68.4265792,10.1212121 68.5479902,9.81818182 68.5479902,9.39393939 C68.5479902,8.90909091 68.4265792,8.48484848 68.2444627,8.18181818 C68.0623462,7.87878788 67.8195242,7.63636364 67.5159967,7.45454545 C67.2124692,7.27272727 66.8482363,7.15151515 66.4840033,7.15151515 C66.1197703,7.09090909 65.7555373,7.09090909 65.3913043,7.09090909 C64.4200164,7.09090909 63.5701395,7.27272727 62.902379,7.63636364 C62.2346185,8 61.8703856,8.72727273 61.8096801,9.75757576 L59.5028712,9.75757576 C59.5635767,8.90909091 59.7456932,8.12121212 60.0492207,7.57575758 C60.3527482,6.96969697 60.8383921,6.48484848 61.3847416,6.12121212 C61.9310911,5.75757576 62.538146,5.45454545 63.266612,5.33333333 C63.9950779,5.21212121 64.7235439,5.09090909 65.5127153,5.09090909 C66.1197703,5.09090909 66.7875308,5.15151515 67.3945857,5.21212121 C68.0016407,5.27272727 68.6086957,5.51515152 69.0943396,5.75757576 C69.5799836,6.06060606 70.0049221,6.42424242 70.3084495,6.96969697 C70.611977,7.45454545 70.7940935,8.12121212 70.7940935,8.96969697 L70.7940935,16.1818182 C70.7940935,16.7272727 70.854799,17.1515152 70.9155045,17.3939394 C70.97621,17.6363636 71.219032,17.7575758 71.583265,17.7575758 C71.7653815,17.7575758 72.0082034,17.6969697 72.3117309,17.6363636 L72.3117309,19.3939394 L72.3117309,19.3939394 Z M68.5479902,12.1818182 C68.2444627,12.4242424 67.8802297,12.5454545 67.3945857,12.6666667 C66.9089418,12.7878788 66.4232978,12.8484848 65.8769483,12.9090909 C65.3305989,12.969697 64.8449549,13.030303 64.2986054,13.1515152 C63.7522559,13.2121212 63.3273175,13.3939394 62.902379,13.5151515 C62.4774405,13.6969697 62.1132075,13.9393939 61.8703856,14.3030303 C61.6275636,14.6666667 61.4454471,15.0909091 61.4454471,15.6969697 C61.4454471,16.0606061 61.5061526,16.4242424 61.6882691,16.6666667 C61.8703856,16.9090909 62.0525021,17.1515152 62.295324,17.3333333 C62.538146,17.5151515 62.8416735,17.6363636 63.145201,17.6969697 C63.4487285,17.7575758 63.8129614,17.8181818 64.1771944,17.8181818 C64.9663659,17.8181818 65.5734208,17.6969697 66.1197703,17.5151515 C66.6661198,17.3333333 67.0910582,17.030303 67.4552912,16.7272727 C67.8195242,16.4242424 68.0623462,16.0606061 68.2444627,15.6969697 C68.4265792,15.3333333 68.4872847,14.969697 68.4872847,14.6666667 L68.4872847,12.1818182 L68.5479902,12.1818182 Z" id="Shape"></path>
                        <path d="M80.5069729,5.39393939 L80.5069729,7.45454545 L77.7145201,7.45454545 L77.7145201,16.1818182 C77.7145201,16.4848485 77.7145201,16.6666667 77.7752256,16.8484848 C77.8359311,17.030303 77.8966366,17.1515152 78.0180476,17.2121212 C78.1394586,17.3333333 78.3215751,17.3333333 78.564397,17.3939394 C78.807219,17.4545455 79.1107465,17.4545455 79.4749795,17.4545455 L80.5676784,17.4545455 L80.5676784,19.5151515 L78.807219,19.5151515 C78.2001641,19.5151515 77.7145201,19.4545455 77.2895816,19.3939394 C76.8646432,19.3333333 76.5004102,19.1515152 76.2575882,18.969697 C76.0147662,18.7272727 75.7719442,18.4242424 75.6505332,18.0606061 C75.5291222,17.6969697 75.4684167,17.1515152 75.4684167,16.4848485 L75.4684167,7.39393939 L73.0401969,7.39393939 L73.0401969,5.39393939 L75.4684167,5.39393939 L75.4684167,1.15151515 L77.7752256,1.15151515 L77.7752256,5.39393939 L80.5069729,5.39393939 Z" id="Shape"></path>
                        <path d="M83.2387203,2.84848485 L83.2387203,0 L85.5455291,0 L85.5455291,2.84848485 L83.2387203,2.84848485 Z M85.5455291,5.39393939 L85.5455291,19.5151515 L83.2387203,19.5151515 L83.2387203,5.39393939 L85.5455291,5.39393939 Z" id="Shape"></path>
                        <path d="M88.8236259,9.51515152 C89.1271534,8.60606061 89.5520919,7.81818182 90.1591468,7.15151515 C90.7662018,6.48484848 91.4339623,5.93939394 92.3445447,5.57575758 C93.1944217,5.21212121 94.1657096,5.03030303 95.319114,5.03030303 C96.4725185,5.03030303 97.4438064,5.21212121 98.2936833,5.57575758 C99.1435603,5.93939394 99.8720263,6.48484848 100.418376,7.15151515 C101.025431,7.81818182 101.450369,8.60606061 101.753897,9.51515152 C102.057424,10.4242424 102.178835,11.3939394 102.178835,12.4242424 C102.178835,13.4545455 102.057424,14.4242424 101.753897,15.3333333 C101.450369,16.2424242 101.025431,17.030303 100.418376,17.6363636 C99.8113208,18.3030303 99.1435603,18.8484848 98.2936833,19.2121212 C97.4438064,19.5757576 96.4725185,19.7575758 95.319114,19.7575758 C94.2264151,19.7575758 93.1944217,19.5757576 92.3445447,19.2121212 C91.4946678,18.8484848 90.7662018,18.3030303 90.1591468,17.6363636 C89.5520919,16.969697 89.1271534,16.1818182 88.8236259,15.3333333 C88.5200984,14.4242424 88.3986874,13.4545455 88.3986874,12.4242424 C88.3986874,11.3939394 88.5200984,10.4242424 88.8236259,9.51515152 Z M91.1911403,14.7272727 C91.4339623,15.3939394 91.7374897,15.9393939 92.1624282,16.3636364 C92.5873667,16.7878788 93.0123052,17.1515152 93.5586546,17.3939394 C94.1050041,17.6363636 94.6513536,17.7575758 95.2584085,17.7575758 C95.8654635,17.7575758 96.411813,17.6363636 96.9581624,17.3939394 C97.5045119,17.1515152 97.9901559,16.7878788 98.3543888,16.3636364 C98.7793273,15.9393939 99.0828548,15.3939394 99.3256768,14.7272727 C99.5684988,14.0606061 99.6899098,13.3333333 99.6899098,12.4242424 C99.6899098,11.5757576 99.5684988,10.7878788 99.3256768,10.1212121 C99.0828548,9.45454545 98.7793273,8.90909091 98.3543888,8.42424242 C97.9294504,7.93939394 97.5045119,7.63636364 96.9581624,7.39393939 C96.411813,7.15151515 95.8654635,7.03030303 95.2584085,7.03030303 C94.6513536,7.03030303 94.1050041,7.15151515 93.5586546,7.39393939 C93.0123052,7.63636364 92.5266612,8 92.1624282,8.42424242 C91.7374897,8.90909091 91.4339623,9.45454545 91.1911403,10.1212121 C90.9483183,10.7878788 90.8269073,11.5151515 90.8269073,12.4242424 C90.8876128,13.2727273 90.9483183,14.0606061 91.1911403,14.7272727 Z" id="Shape"></path>
                        <path d="M107.035275,5.39393939 L107.035275,7.63636364 L107.09598,7.63636364 C108.067268,5.93939394 109.584906,5.09090909 111.709598,5.09090909 C112.62018,5.09090909 113.409352,5.21212121 114.016407,5.45454545 C114.623462,5.6969697 115.109106,6.06060606 115.534044,6.54545455 C115.898277,7.03030303 116.201805,7.51515152 116.323216,8.18181818 C116.505332,8.78787879 116.566038,9.51515152 116.566038,10.2424242 L116.566038,19.5151515 L114.259229,19.5151515 L114.259229,9.93939394 C114.259229,9.09090909 114.016407,8.36363636 113.470057,7.87878788 C112.984413,7.39393939 112.255947,7.09090909 111.345365,7.09090909 C110.616899,7.09090909 110.009844,7.21212121 109.5242,7.39393939 C108.977851,7.63636364 108.552912,7.93939394 108.249385,8.3030303 C107.885152,8.72727273 107.64233,9.15151515 107.460213,9.6969697 C107.278097,10.2424242 107.217391,10.8484848 107.217391,11.4545455 L107.217391,19.3939394 L104.910582,19.3939394 L104.910582,5.39393939 L107.035275,5.39393939 Z" id="Shape"></path>
                    </g>
                </g>
            </g>
        </g>
    </g>
</svg>